<mxfile host="Electron" agent="Mozilla/5.0 (Windows NT 10.0; Win64; x64) AppleWebKit/537.36 (KHTML, like Gecko) draw.io/24.7.17 Chrome/128.0.6613.36 Electron/32.0.1 Safari/537.36" version="24.7.17" pages="7">
  <diagram id="82C0XvHmeazEsgBBKWpk" name="Utama">
    <mxGraphModel dx="2670" dy="2056" grid="1" gridSize="10" guides="1" tooltips="1" connect="1" arrows="1" fold="1" page="1" pageScale="1" pageWidth="827" pageHeight="1169" math="0" shadow="0">
      <root>
        <mxCell id="0" />
        <mxCell id="1" parent="0" />
        <mxCell id="Iu1miecpNU3waz-icJGZ-3" value="" style="edgeStyle=orthogonalEdgeStyle;rounded=0;orthogonalLoop=1;jettySize=auto;html=1;" parent="1" source="0IKWFzrn_2n16nnVd0FQ-9" target="Iu1miecpNU3waz-icJGZ-2" edge="1">
          <mxGeometry relative="1" as="geometry" />
        </mxCell>
        <mxCell id="Iu1miecpNU3waz-icJGZ-1" value="Start" style="ellipse;whiteSpace=wrap;html=1;" parent="1" vertex="1">
          <mxGeometry x="340" y="-700" width="120" height="80" as="geometry" />
        </mxCell>
        <mxCell id="-c1jj4YLP1YuikdIl42c-2" value="" style="edgeStyle=orthogonalEdgeStyle;rounded=0;orthogonalLoop=1;jettySize=auto;html=1;" parent="1" source="Iu1miecpNU3waz-icJGZ-2" edge="1">
          <mxGeometry relative="1" as="geometry">
            <mxPoint x="400" y="400" as="targetPoint" />
          </mxGeometry>
        </mxCell>
        <mxCell id="Iu1miecpNU3waz-icJGZ-2" value="Selamat Datang di pemasanan tiket" style="shape=parallelogram;perimeter=parallelogramPerimeter;whiteSpace=wrap;html=1;fixedSize=1;" parent="1" vertex="1">
          <mxGeometry x="340" y="310" width="120" height="60" as="geometry" />
        </mxCell>
        <mxCell id="-c1jj4YLP1YuikdIl42c-4" value="" style="edgeStyle=orthogonalEdgeStyle;rounded=0;orthogonalLoop=1;jettySize=auto;html=1;" parent="1" target="-c1jj4YLP1YuikdIl42c-3" edge="1">
          <mxGeometry relative="1" as="geometry">
            <mxPoint x="400" y="460" as="sourcePoint" />
          </mxGeometry>
        </mxCell>
        <mxCell id="-c1jj4YLP1YuikdIl42c-8" value="" style="edgeStyle=orthogonalEdgeStyle;rounded=0;orthogonalLoop=1;jettySize=auto;html=1;" parent="1" source="-c1jj4YLP1YuikdIl42c-3" target="-c1jj4YLP1YuikdIl42c-7" edge="1">
          <mxGeometry relative="1" as="geometry" />
        </mxCell>
        <mxCell id="-c1jj4YLP1YuikdIl42c-3" value="Input&amp;nbsp;&lt;div&gt;Pilihan Menu&lt;/div&gt;" style="shape=parallelogram;perimeter=parallelogramPerimeter;whiteSpace=wrap;html=1;fixedSize=1;" parent="1" vertex="1">
          <mxGeometry x="340" y="510" width="120" height="60" as="geometry" />
        </mxCell>
        <mxCell id="-c1jj4YLP1YuikdIl42c-6" value="" style="edgeStyle=none;orthogonalLoop=1;jettySize=auto;html=1;rounded=0;" parent="1" edge="1">
          <mxGeometry width="100" relative="1" as="geometry">
            <mxPoint x="330" y="520" as="sourcePoint" />
            <mxPoint x="380" y="520" as="targetPoint" />
            <Array as="points" />
          </mxGeometry>
        </mxCell>
        <mxCell id="VLGPpc6eFtziSm81CsRU-19" value="" style="edgeStyle=orthogonalEdgeStyle;rounded=0;orthogonalLoop=1;jettySize=auto;html=1;" parent="1" source="-c1jj4YLP1YuikdIl42c-7" target="VLGPpc6eFtziSm81CsRU-18" edge="1">
          <mxGeometry relative="1" as="geometry" />
        </mxCell>
        <mxCell id="PemsCcTuVY0aDb7ynCEU-1" value="False" style="edgeLabel;html=1;align=center;verticalAlign=middle;resizable=0;points=[];" parent="VLGPpc6eFtziSm81CsRU-19" vertex="1" connectable="0">
          <mxGeometry x="-0.2987" y="1" relative="1" as="geometry">
            <mxPoint x="-21" y="-1" as="offset" />
          </mxGeometry>
        </mxCell>
        <mxCell id="QqoVBcmVaSfNdjUa2L9D-8" value="" style="edgeStyle=orthogonalEdgeStyle;rounded=0;orthogonalLoop=1;jettySize=auto;html=1;" parent="1" source="-c1jj4YLP1YuikdIl42c-7" target="QqoVBcmVaSfNdjUa2L9D-5" edge="1">
          <mxGeometry relative="1" as="geometry" />
        </mxCell>
        <mxCell id="QqoVBcmVaSfNdjUa2L9D-10" value="True" style="edgeLabel;html=1;align=center;verticalAlign=middle;resizable=0;points=[];" parent="QqoVBcmVaSfNdjUa2L9D-8" vertex="1" connectable="0">
          <mxGeometry x="-0.1029" y="2" relative="1" as="geometry">
            <mxPoint x="-1" as="offset" />
          </mxGeometry>
        </mxCell>
        <mxCell id="-c1jj4YLP1YuikdIl42c-7" value="Apakah User Memilih Registrasi?" style="rhombus;whiteSpace=wrap;html=1;" parent="1" vertex="1">
          <mxGeometry x="360" y="620" width="80" height="80" as="geometry" />
        </mxCell>
        <mxCell id="Z1VJ0bMXaOim6tghgy-9-8" value="" style="edgeStyle=orthogonalEdgeStyle;rounded=0;orthogonalLoop=1;jettySize=auto;html=1;" parent="1" source="VLGPpc6eFtziSm81CsRU-18" target="Z1VJ0bMXaOim6tghgy-9-3" edge="1">
          <mxGeometry relative="1" as="geometry" />
        </mxCell>
        <mxCell id="Z1VJ0bMXaOim6tghgy-9-9" value="False" style="edgeLabel;html=1;align=center;verticalAlign=middle;resizable=0;points=[];" parent="Z1VJ0bMXaOim6tghgy-9-8" vertex="1" connectable="0">
          <mxGeometry x="0.0603" y="3" relative="1" as="geometry">
            <mxPoint as="offset" />
          </mxGeometry>
        </mxCell>
        <mxCell id="Z1VJ0bMXaOim6tghgy-9-12" value="" style="edgeStyle=orthogonalEdgeStyle;rounded=0;orthogonalLoop=1;jettySize=auto;html=1;" parent="1" source="Z1VJ0bMXaOim6tghgy-9-17" target="Z1VJ0bMXaOim6tghgy-9-11" edge="1">
          <mxGeometry relative="1" as="geometry" />
        </mxCell>
        <mxCell id="VLGPpc6eFtziSm81CsRU-18" value="Apakah User Memilih Login?" style="rhombus;whiteSpace=wrap;html=1;" parent="1" vertex="1">
          <mxGeometry x="140" y="620" width="80" height="80" as="geometry" />
        </mxCell>
        <mxCell id="0IKWFzrn_2n16nnVd0FQ-2" value="" style="edgeStyle=orthogonalEdgeStyle;rounded=0;orthogonalLoop=1;jettySize=auto;html=1;" parent="1" source="Iu1miecpNU3waz-icJGZ-1" target="0IKWFzrn_2n16nnVd0FQ-1" edge="1">
          <mxGeometry relative="1" as="geometry">
            <mxPoint x="400" y="40" as="sourcePoint" />
            <mxPoint x="400" y="290" as="targetPoint" />
          </mxGeometry>
        </mxCell>
        <mxCell id="0IKWFzrn_2n16nnVd0FQ-1" value="Import pwinput" style="rounded=1;whiteSpace=wrap;html=1;absoluteArcSize=1;arcSize=14;strokeWidth=2;" parent="1" vertex="1">
          <mxGeometry x="350" y="-560" width="100" height="100" as="geometry" />
        </mxCell>
        <mxCell id="0IKWFzrn_2n16nnVd0FQ-4" value="" style="edgeStyle=orthogonalEdgeStyle;rounded=0;orthogonalLoop=1;jettySize=auto;html=1;" parent="1" source="0IKWFzrn_2n16nnVd0FQ-1" target="0IKWFzrn_2n16nnVd0FQ-3" edge="1">
          <mxGeometry relative="1" as="geometry">
            <mxPoint x="404" y="-430" as="sourcePoint" />
            <mxPoint x="400" y="310" as="targetPoint" />
          </mxGeometry>
        </mxCell>
        <mxCell id="0IKWFzrn_2n16nnVd0FQ-3" value="akuns" style="rounded=1;whiteSpace=wrap;html=1;absoluteArcSize=1;arcSize=14;strokeWidth=2;" parent="1" vertex="1">
          <mxGeometry x="350" y="-390" width="100" height="100" as="geometry" />
        </mxCell>
        <mxCell id="0IKWFzrn_2n16nnVd0FQ-6" value="" style="edgeStyle=orthogonalEdgeStyle;rounded=0;orthogonalLoop=1;jettySize=auto;html=1;" parent="1" source="0IKWFzrn_2n16nnVd0FQ-3" target="0IKWFzrn_2n16nnVd0FQ-5" edge="1">
          <mxGeometry relative="1" as="geometry">
            <mxPoint x="400" y="-250" as="sourcePoint" />
            <mxPoint x="400" y="310" as="targetPoint" />
          </mxGeometry>
        </mxCell>
        <mxCell id="0IKWFzrn_2n16nnVd0FQ-5" value="AkunADM" style="rounded=1;whiteSpace=wrap;html=1;absoluteArcSize=1;arcSize=14;strokeWidth=2;" parent="1" vertex="1">
          <mxGeometry x="350" y="-200" width="100" height="100" as="geometry" />
        </mxCell>
        <mxCell id="0IKWFzrn_2n16nnVd0FQ-8" value="" style="edgeStyle=orthogonalEdgeStyle;rounded=0;orthogonalLoop=1;jettySize=auto;html=1;" parent="1" source="0IKWFzrn_2n16nnVd0FQ-5" target="0IKWFzrn_2n16nnVd0FQ-7" edge="1">
          <mxGeometry relative="1" as="geometry">
            <mxPoint x="400" y="-50" as="sourcePoint" />
            <mxPoint x="400" y="310" as="targetPoint" />
          </mxGeometry>
        </mxCell>
        <mxCell id="0IKWFzrn_2n16nnVd0FQ-7" value="jadwal_penerbangan" style="rounded=1;whiteSpace=wrap;html=1;absoluteArcSize=1;arcSize=14;strokeWidth=2;" parent="1" vertex="1">
          <mxGeometry x="350" y="-10" width="100" height="100" as="geometry" />
        </mxCell>
        <mxCell id="0IKWFzrn_2n16nnVd0FQ-10" value="" style="edgeStyle=orthogonalEdgeStyle;rounded=0;orthogonalLoop=1;jettySize=auto;html=1;" parent="1" source="0IKWFzrn_2n16nnVd0FQ-7" target="0IKWFzrn_2n16nnVd0FQ-9" edge="1">
          <mxGeometry relative="1" as="geometry">
            <mxPoint x="400" y="150" as="sourcePoint" />
            <mxPoint x="400" y="310" as="targetPoint" />
          </mxGeometry>
        </mxCell>
        <mxCell id="0IKWFzrn_2n16nnVd0FQ-9" value="pembelian" style="rounded=1;whiteSpace=wrap;html=1;absoluteArcSize=1;arcSize=14;strokeWidth=2;" parent="1" vertex="1">
          <mxGeometry x="350" y="160" width="100" height="100" as="geometry" />
        </mxCell>
        <mxCell id="QqoVBcmVaSfNdjUa2L9D-1" value="" style="edgeStyle=none;orthogonalLoop=1;jettySize=auto;html=1;rounded=0;" parent="1" edge="1">
          <mxGeometry width="100" relative="1" as="geometry">
            <mxPoint x="424" y="360" as="sourcePoint" />
            <mxPoint x="474" y="360" as="targetPoint" />
            <Array as="points" />
          </mxGeometry>
        </mxCell>
        <mxCell id="QqoVBcmVaSfNdjUa2L9D-2" value="Tampilan menu" style="shape=parallelogram;html=1;strokeWidth=2;perimeter=parallelogramPerimeter;whiteSpace=wrap;rounded=1;arcSize=12;size=0.23;" parent="1" vertex="1">
          <mxGeometry x="350" y="400" width="100" height="60" as="geometry" />
        </mxCell>
        <mxCell id="QqoVBcmVaSfNdjUa2L9D-4" value="" style="edgeStyle=none;orthogonalLoop=1;jettySize=auto;html=1;rounded=0;" parent="1" edge="1">
          <mxGeometry width="100" relative="1" as="geometry">
            <mxPoint x="400" y="450" as="sourcePoint" />
            <mxPoint x="450" y="450" as="targetPoint" />
            <Array as="points" />
          </mxGeometry>
        </mxCell>
        <mxCell id="QqoVBcmVaSfNdjUa2L9D-9" style="edgeStyle=orthogonalEdgeStyle;rounded=0;orthogonalLoop=1;jettySize=auto;html=1;entryX=1;entryY=0.5;entryDx=0;entryDy=0;" parent="1" source="QqoVBcmVaSfNdjUa2L9D-5" target="-c1jj4YLP1YuikdIl42c-3" edge="1">
          <mxGeometry relative="1" as="geometry">
            <Array as="points">
              <mxPoint x="700" y="660" />
              <mxPoint x="700" y="540" />
            </Array>
          </mxGeometry>
        </mxCell>
        <mxCell id="QqoVBcmVaSfNdjUa2L9D-5" value="" style="verticalLabelPosition=bottom;verticalAlign=top;html=1;shape=process;whiteSpace=wrap;rounded=1;size=0.14;arcSize=6;" parent="1" vertex="1">
          <mxGeometry x="520" y="630" width="100" height="60" as="geometry" />
        </mxCell>
        <mxCell id="QqoVBcmVaSfNdjUa2L9D-6" value="register" style="text;html=1;align=center;verticalAlign=middle;resizable=0;points=[];autosize=1;strokeColor=none;fillColor=none;" parent="1" vertex="1">
          <mxGeometry x="540" y="645" width="60" height="30" as="geometry" />
        </mxCell>
        <mxCell id="Z1VJ0bMXaOim6tghgy-9-6" style="edgeStyle=orthogonalEdgeStyle;rounded=0;orthogonalLoop=1;jettySize=auto;html=1;entryX=0;entryY=0.5;entryDx=0;entryDy=0;" parent="1" source="Z1VJ0bMXaOim6tghgy-9-3" target="-c1jj4YLP1YuikdIl42c-3" edge="1">
          <mxGeometry relative="1" as="geometry">
            <Array as="points">
              <mxPoint x="-140" y="660" />
              <mxPoint x="-140" y="540" />
            </Array>
          </mxGeometry>
        </mxCell>
        <mxCell id="Z1VJ0bMXaOim6tghgy-9-7" value="False" style="edgeLabel;html=1;align=center;verticalAlign=middle;resizable=0;points=[];" parent="Z1VJ0bMXaOim6tghgy-9-6" vertex="1" connectable="0">
          <mxGeometry x="-0.8574" y="4" relative="1" as="geometry">
            <mxPoint x="-1" as="offset" />
          </mxGeometry>
        </mxCell>
        <mxCell id="zCn5_glyXo9XUuHyW-ID-1" style="edgeStyle=orthogonalEdgeStyle;rounded=0;orthogonalLoop=1;jettySize=auto;html=1;entryX=0.5;entryY=0;entryDx=0;entryDy=0;entryPerimeter=0;" parent="1" source="Z1VJ0bMXaOim6tghgy-9-3" target="zCn5_glyXo9XUuHyW-ID-2" edge="1">
          <mxGeometry relative="1" as="geometry">
            <mxPoint x="10" y="1420.9412339154412" as="targetPoint" />
            <Array as="points">
              <mxPoint x="10" y="1360" />
              <mxPoint x="414" y="1360" />
            </Array>
          </mxGeometry>
        </mxCell>
        <mxCell id="zCn5_glyXo9XUuHyW-ID-3" value="True" style="edgeLabel;html=1;align=center;verticalAlign=middle;resizable=0;points=[];" parent="zCn5_glyXo9XUuHyW-ID-1" vertex="1" connectable="0">
          <mxGeometry x="-0.8235" y="4" relative="1" as="geometry">
            <mxPoint x="-3" as="offset" />
          </mxGeometry>
        </mxCell>
        <mxCell id="Z1VJ0bMXaOim6tghgy-9-3" value="Logout?" style="strokeWidth=2;html=1;shape=mxgraph.flowchart.decision;whiteSpace=wrap;" parent="1" vertex="1">
          <mxGeometry x="-40" y="610" width="100" height="100" as="geometry" />
        </mxCell>
        <mxCell id="Z1VJ0bMXaOim6tghgy-9-25" value="" style="edgeStyle=orthogonalEdgeStyle;rounded=0;orthogonalLoop=1;jettySize=auto;html=1;" parent="1" source="Z1VJ0bMXaOim6tghgy-9-10" target="Z1VJ0bMXaOim6tghgy-9-24" edge="1">
          <mxGeometry relative="1" as="geometry" />
        </mxCell>
        <mxCell id="Z1VJ0bMXaOim6tghgy-9-10" value="Rolenya pengguna" style="strokeWidth=2;html=1;shape=mxgraph.flowchart.decision;whiteSpace=wrap;" parent="1" vertex="1">
          <mxGeometry x="360" y="890" width="100" height="100" as="geometry" />
        </mxCell>
        <mxCell id="Z1VJ0bMXaOim6tghgy-9-16" value="" style="edgeStyle=orthogonalEdgeStyle;rounded=0;orthogonalLoop=1;jettySize=auto;html=1;" parent="1" source="Z1VJ0bMXaOim6tghgy-9-11" target="Z1VJ0bMXaOim6tghgy-9-10" edge="1">
          <mxGeometry relative="1" as="geometry" />
        </mxCell>
        <mxCell id="Z1VJ0bMXaOim6tghgy-9-22" value="False" style="edgeLabel;html=1;align=center;verticalAlign=middle;resizable=0;points=[];" parent="Z1VJ0bMXaOim6tghgy-9-16" vertex="1" connectable="0">
          <mxGeometry x="0.105" relative="1" as="geometry">
            <mxPoint as="offset" />
          </mxGeometry>
        </mxCell>
        <mxCell id="Z1VJ0bMXaOim6tghgy-9-20" value="" style="edgeStyle=orthogonalEdgeStyle;rounded=0;orthogonalLoop=1;jettySize=auto;html=1;" parent="1" source="Z1VJ0bMXaOim6tghgy-9-11" target="Z1VJ0bMXaOim6tghgy-9-13" edge="1">
          <mxGeometry relative="1" as="geometry" />
        </mxCell>
        <mxCell id="Z1VJ0bMXaOim6tghgy-9-23" value="True" style="edgeLabel;html=1;align=center;verticalAlign=middle;resizable=0;points=[];" parent="Z1VJ0bMXaOim6tghgy-9-20" vertex="1" connectable="0">
          <mxGeometry x="-0.1429" y="1" relative="1" as="geometry">
            <mxPoint y="1" as="offset" />
          </mxGeometry>
        </mxCell>
        <mxCell id="Z1VJ0bMXaOim6tghgy-9-11" value="Rolenya admin ?" style="strokeWidth=2;html=1;shape=mxgraph.flowchart.decision;whiteSpace=wrap;" parent="1" vertex="1">
          <mxGeometry x="130" y="890" width="100" height="100" as="geometry" />
        </mxCell>
        <mxCell id="Z1VJ0bMXaOim6tghgy-9-13" value="" style="verticalLabelPosition=bottom;verticalAlign=top;html=1;shape=process;whiteSpace=wrap;rounded=1;size=0.14;arcSize=6;" parent="1" vertex="1">
          <mxGeometry x="130" y="1060" width="100" height="60" as="geometry" />
        </mxCell>
        <mxCell id="Z1VJ0bMXaOim6tghgy-9-18" value="" style="edgeStyle=orthogonalEdgeStyle;rounded=0;orthogonalLoop=1;jettySize=auto;html=1;" parent="1" source="VLGPpc6eFtziSm81CsRU-18" target="Z1VJ0bMXaOim6tghgy-9-17" edge="1">
          <mxGeometry relative="1" as="geometry">
            <mxPoint x="180" y="700" as="sourcePoint" />
            <mxPoint x="180" y="950" as="targetPoint" />
          </mxGeometry>
        </mxCell>
        <mxCell id="Z1VJ0bMXaOim6tghgy-9-17" value="" style="verticalLabelPosition=bottom;verticalAlign=top;html=1;shape=process;whiteSpace=wrap;rounded=1;size=0.14;arcSize=6;" parent="1" vertex="1">
          <mxGeometry x="130" y="770" width="100" height="60" as="geometry" />
        </mxCell>
        <mxCell id="Z1VJ0bMXaOim6tghgy-9-19" value="Login" style="text;html=1;align=center;verticalAlign=middle;resizable=0;points=[];autosize=1;strokeColor=none;fillColor=none;" parent="1" vertex="1">
          <mxGeometry x="155" y="783" width="50" height="30" as="geometry" />
        </mxCell>
        <mxCell id="zCn5_glyXo9XUuHyW-ID-5" style="edgeStyle=orthogonalEdgeStyle;rounded=0;orthogonalLoop=1;jettySize=auto;html=1;entryX=1;entryY=0.5;entryDx=0;entryDy=0;exitX=0.5;exitY=1;exitDx=0;exitDy=0;" parent="1" source="Z1VJ0bMXaOim6tghgy-9-13" target="-c1jj4YLP1YuikdIl42c-3" edge="1">
          <mxGeometry relative="1" as="geometry">
            <Array as="points">
              <mxPoint x="180" y="1180" />
              <mxPoint x="810" y="1180" />
              <mxPoint x="810" y="540" />
            </Array>
          </mxGeometry>
        </mxCell>
        <mxCell id="Z1VJ0bMXaOim6tghgy-9-21" value="menu_admin" style="text;html=1;align=center;verticalAlign=middle;resizable=0;points=[];autosize=1;strokeColor=none;fillColor=none;" parent="1" vertex="1">
          <mxGeometry x="135" y="1075" width="90" height="30" as="geometry" />
        </mxCell>
        <mxCell id="Z1VJ0bMXaOim6tghgy-9-24" value="" style="verticalLabelPosition=bottom;verticalAlign=top;html=1;shape=process;whiteSpace=wrap;rounded=1;size=0.14;arcSize=6;" parent="1" vertex="1">
          <mxGeometry x="350" y="1060" width="120" height="60" as="geometry" />
        </mxCell>
        <mxCell id="zCn5_glyXo9XUuHyW-ID-4" style="edgeStyle=orthogonalEdgeStyle;rounded=0;orthogonalLoop=1;jettySize=auto;html=1;entryX=1;entryY=0.5;entryDx=0;entryDy=0;exitX=0.5;exitY=1;exitDx=0;exitDy=0;" parent="1" source="Z1VJ0bMXaOim6tghgy-9-24" target="-c1jj4YLP1YuikdIl42c-3" edge="1">
          <mxGeometry relative="1" as="geometry">
            <mxPoint x="410" y="1130" as="sourcePoint" />
            <Array as="points">
              <mxPoint x="410" y="1150" />
              <mxPoint x="780" y="1150" />
              <mxPoint x="780" y="540" />
            </Array>
          </mxGeometry>
        </mxCell>
        <mxCell id="Z1VJ0bMXaOim6tghgy-9-26" value="Menu_pengguna" style="text;html=1;align=center;verticalAlign=middle;resizable=0;points=[];autosize=1;strokeColor=none;fillColor=none;" parent="1" vertex="1">
          <mxGeometry x="355" y="1075" width="110" height="30" as="geometry" />
        </mxCell>
        <mxCell id="zCn5_glyXo9XUuHyW-ID-2" value="END" style="strokeWidth=2;html=1;shape=mxgraph.flowchart.start_1;whiteSpace=wrap;" parent="1" vertex="1">
          <mxGeometry x="364" y="1390" width="100" height="60" as="geometry" />
        </mxCell>
      </root>
    </mxGraphModel>
  </diagram>
  <diagram id="PqGGuoXHxu3EhE2B4IM-" name="Login">
    <mxGraphModel dx="1290" dy="1790" grid="1" gridSize="10" guides="1" tooltips="1" connect="1" arrows="1" fold="1" page="1" pageScale="1" pageWidth="827" pageHeight="1169" math="0" shadow="0">
      <root>
        <mxCell id="0" />
        <mxCell id="1" parent="0" />
        <mxCell id="Ntan1O6fb1fwG5vPa3W1-1" value="" style="edgeStyle=orthogonalEdgeStyle;rounded=0;orthogonalLoop=1;jettySize=auto;html=1;" parent="1" source="Ntan1O6fb1fwG5vPa3W1-2" target="Ntan1O6fb1fwG5vPa3W1-4" edge="1">
          <mxGeometry relative="1" as="geometry">
            <Array as="points">
              <mxPoint x="420" y="-680" />
              <mxPoint x="420" y="-680" />
            </Array>
          </mxGeometry>
        </mxCell>
        <mxCell id="Ntan1O6fb1fwG5vPa3W1-2" value="Log In" style="strokeWidth=2;html=1;shape=mxgraph.flowchart.start_1;whiteSpace=wrap;" parent="1" vertex="1">
          <mxGeometry x="370" y="-760" width="100" height="60" as="geometry" />
        </mxCell>
        <mxCell id="Ntan1O6fb1fwG5vPa3W1-3" value="" style="edgeStyle=orthogonalEdgeStyle;rounded=0;orthogonalLoop=1;jettySize=auto;html=1;" parent="1" source="Ntan1O6fb1fwG5vPa3W1-4" target="Ntan1O6fb1fwG5vPa3W1-9" edge="1">
          <mxGeometry relative="1" as="geometry" />
        </mxCell>
        <mxCell id="Ntan1O6fb1fwG5vPa3W1-4" value="Input&lt;div&gt;Username dan Password&lt;/div&gt;" style="shape=parallelogram;perimeter=parallelogramPerimeter;whiteSpace=wrap;html=1;fixedSize=1;strokeWidth=2;" parent="1" vertex="1">
          <mxGeometry x="360" y="-660" width="120" height="60" as="geometry" />
        </mxCell>
        <mxCell id="Ntan1O6fb1fwG5vPa3W1-5" value="" style="edgeStyle=orthogonalEdgeStyle;rounded=0;orthogonalLoop=1;jettySize=auto;html=1;" parent="1" source="Ntan1O6fb1fwG5vPa3W1-9" target="Ntan1O6fb1fwG5vPa3W1-14" edge="1">
          <mxGeometry relative="1" as="geometry" />
        </mxCell>
        <mxCell id="Ntan1O6fb1fwG5vPa3W1-6" value="True" style="edgeLabel;html=1;align=center;verticalAlign=middle;resizable=0;points=[];" parent="Ntan1O6fb1fwG5vPa3W1-5" vertex="1" connectable="0">
          <mxGeometry x="-0.3719" y="-2" relative="1" as="geometry">
            <mxPoint as="offset" />
          </mxGeometry>
        </mxCell>
        <mxCell id="Ntan1O6fb1fwG5vPa3W1-7" style="edgeStyle=orthogonalEdgeStyle;rounded=0;orthogonalLoop=1;jettySize=auto;html=1;exitX=0;exitY=0.5;exitDx=0;exitDy=0;entryX=0.5;entryY=0;entryDx=0;entryDy=0;" parent="1" source="Ntan1O6fb1fwG5vPa3W1-9" target="Ntan1O6fb1fwG5vPa3W1-17" edge="1">
          <mxGeometry relative="1" as="geometry" />
        </mxCell>
        <mxCell id="Ntan1O6fb1fwG5vPa3W1-8" value="False" style="edgeLabel;html=1;align=center;verticalAlign=middle;resizable=0;points=[];" parent="Ntan1O6fb1fwG5vPa3W1-7" vertex="1" connectable="0">
          <mxGeometry x="-0.7686" y="2" relative="1" as="geometry">
            <mxPoint as="offset" />
          </mxGeometry>
        </mxCell>
        <mxCell id="Ntan1O6fb1fwG5vPa3W1-9" value="Apakah Pengguna Ada?" style="rhombus;whiteSpace=wrap;html=1;strokeWidth=2;" parent="1" vertex="1">
          <mxGeometry x="380" y="-560" width="80" height="80" as="geometry" />
        </mxCell>
        <mxCell id="Ntan1O6fb1fwG5vPa3W1-10" value="" style="edgeStyle=orthogonalEdgeStyle;rounded=0;orthogonalLoop=1;jettySize=auto;html=1;" parent="1" source="Ntan1O6fb1fwG5vPa3W1-14" target="Ntan1O6fb1fwG5vPa3W1-15" edge="1">
          <mxGeometry relative="1" as="geometry">
            <Array as="points">
              <mxPoint x="767" y="-430" />
            </Array>
          </mxGeometry>
        </mxCell>
        <mxCell id="Ntan1O6fb1fwG5vPa3W1-11" value="True" style="edgeLabel;html=1;align=center;verticalAlign=middle;resizable=0;points=[];" parent="Ntan1O6fb1fwG5vPa3W1-10" vertex="1" connectable="0">
          <mxGeometry x="-0.4153" y="-3" relative="1" as="geometry">
            <mxPoint as="offset" />
          </mxGeometry>
        </mxCell>
        <mxCell id="Ntan1O6fb1fwG5vPa3W1-12" value="" style="edgeStyle=orthogonalEdgeStyle;rounded=0;orthogonalLoop=1;jettySize=auto;html=1;" parent="1" source="Ntan1O6fb1fwG5vPa3W1-14" target="Ntan1O6fb1fwG5vPa3W1-17" edge="1">
          <mxGeometry relative="1" as="geometry" />
        </mxCell>
        <mxCell id="Ntan1O6fb1fwG5vPa3W1-13" value="False" style="edgeLabel;html=1;align=center;verticalAlign=middle;resizable=0;points=[];" parent="Ntan1O6fb1fwG5vPa3W1-12" vertex="1" connectable="0">
          <mxGeometry x="-0.3798" y="4" relative="1" as="geometry">
            <mxPoint as="offset" />
          </mxGeometry>
        </mxCell>
        <mxCell id="Ntan1O6fb1fwG5vPa3W1-14" value="Apakah Password Cocok?" style="rhombus;whiteSpace=wrap;html=1;strokeWidth=2;" parent="1" vertex="1">
          <mxGeometry x="560" y="-470" width="80" height="80" as="geometry" />
        </mxCell>
        <mxCell id="Ntan1O6fb1fwG5vPa3W1-15" value="Output&lt;div&gt;Selamat Datang,Username!&lt;/div&gt;" style="shape=parallelogram;perimeter=parallelogramPerimeter;whiteSpace=wrap;html=1;fixedSize=1;strokeWidth=2;" parent="1" vertex="1">
          <mxGeometry x="707" y="-370" width="120" height="60" as="geometry" />
        </mxCell>
        <mxCell id="_UhiaGoPscUCbym4MKrA-5" style="edgeStyle=orthogonalEdgeStyle;rounded=0;orthogonalLoop=1;jettySize=auto;html=1;entryX=0;entryY=0.5;entryDx=0;entryDy=0;" edge="1" parent="1" source="Ntan1O6fb1fwG5vPa3W1-17" target="Ntan1O6fb1fwG5vPa3W1-4">
          <mxGeometry relative="1" as="geometry">
            <Array as="points">
              <mxPoint x="180" y="-240" />
              <mxPoint x="180" y="-630" />
            </Array>
          </mxGeometry>
        </mxCell>
        <mxCell id="Ntan1O6fb1fwG5vPa3W1-17" value="Output&lt;div&gt;&lt;span style=&quot;background-color: initial;&quot;&gt;Login gagal, username atau password salah&lt;/span&gt;&lt;/div&gt;" style="shape=parallelogram;perimeter=parallelogramPerimeter;whiteSpace=wrap;html=1;fixedSize=1;strokeWidth=2;" parent="1" vertex="1">
          <mxGeometry x="230" y="-270" width="140" height="60" as="geometry" />
        </mxCell>
        <mxCell id="Ntan1O6fb1fwG5vPa3W1-18" value="End" style="strokeWidth=2;html=1;shape=mxgraph.flowchart.start_1;whiteSpace=wrap;" parent="1" vertex="1">
          <mxGeometry x="370" y="-110" width="100" height="60" as="geometry" />
        </mxCell>
        <mxCell id="Ntan1O6fb1fwG5vPa3W1-19" style="edgeStyle=orthogonalEdgeStyle;rounded=0;orthogonalLoop=1;jettySize=auto;html=1;exitX=0.5;exitY=1;exitDx=0;exitDy=0;entryX=0.5;entryY=0;entryDx=0;entryDy=0;entryPerimeter=0;" parent="1" source="Ntan1O6fb1fwG5vPa3W1-15" target="Ntan1O6fb1fwG5vPa3W1-18" edge="1">
          <mxGeometry relative="1" as="geometry">
            <Array as="points">
              <mxPoint x="767" y="-150" />
              <mxPoint x="420" y="-150" />
            </Array>
          </mxGeometry>
        </mxCell>
        <mxCell id="_UhiaGoPscUCbym4MKrA-1" value="" style="edgeStyle=none;orthogonalLoop=1;jettySize=auto;html=1;rounded=0;" edge="1" parent="1">
          <mxGeometry width="100" relative="1" as="geometry">
            <mxPoint x="350" y="-650" as="sourcePoint" />
            <mxPoint x="400" y="-650" as="targetPoint" />
            <Array as="points" />
          </mxGeometry>
        </mxCell>
        <mxCell id="_UhiaGoPscUCbym4MKrA-2" value="" style="edgeStyle=none;orthogonalLoop=1;jettySize=auto;html=1;rounded=0;" edge="1" parent="1">
          <mxGeometry width="100" relative="1" as="geometry">
            <mxPoint x="330" y="-220" as="sourcePoint" />
            <mxPoint x="380" y="-220" as="targetPoint" />
            <Array as="points" />
          </mxGeometry>
        </mxCell>
        <mxCell id="_UhiaGoPscUCbym4MKrA-4" value="" style="edgeStyle=none;orthogonalLoop=1;jettySize=auto;html=1;rounded=0;" edge="1" parent="1">
          <mxGeometry width="100" relative="1" as="geometry">
            <mxPoint x="777" y="-320" as="sourcePoint" />
            <mxPoint x="827" y="-320" as="targetPoint" />
            <Array as="points" />
          </mxGeometry>
        </mxCell>
      </root>
    </mxGraphModel>
  </diagram>
  <diagram id="oVdfbIxQlkfVFfGNHqxA" name="Tampilkan Jadwal">
    <mxGraphModel dx="1518" dy="731" grid="1" gridSize="10" guides="1" tooltips="1" connect="1" arrows="1" fold="1" page="1" pageScale="1" pageWidth="827" pageHeight="1169" math="0" shadow="0">
      <root>
        <mxCell id="0" />
        <mxCell id="1" parent="0" />
        <mxCell id="3a2kc44z9rLTdfZVaCFz-1" value="" style="edgeStyle=orthogonalEdgeStyle;rounded=0;orthogonalLoop=1;jettySize=auto;html=1;" parent="1" source="3a2kc44z9rLTdfZVaCFz-2" target="3a2kc44z9rLTdfZVaCFz-7" edge="1">
          <mxGeometry relative="1" as="geometry" />
        </mxCell>
        <mxCell id="3a2kc44z9rLTdfZVaCFz-2" value="Tampilkan Jadwal" style="strokeWidth=2;html=1;shape=mxgraph.flowchart.start_1;whiteSpace=wrap;" parent="1" vertex="1">
          <mxGeometry x="364" y="40" width="100" height="60" as="geometry" />
        </mxCell>
        <mxCell id="3a2kc44z9rLTdfZVaCFz-3" value="" style="edgeStyle=orthogonalEdgeStyle;rounded=0;orthogonalLoop=1;jettySize=auto;html=1;" parent="1" source="3a2kc44z9rLTdfZVaCFz-7" target="3a2kc44z9rLTdfZVaCFz-8" edge="1">
          <mxGeometry relative="1" as="geometry" />
        </mxCell>
        <mxCell id="3a2kc44z9rLTdfZVaCFz-4" value="True" style="edgeLabel;html=1;align=center;verticalAlign=middle;resizable=0;points=[];" parent="3a2kc44z9rLTdfZVaCFz-3" vertex="1" connectable="0">
          <mxGeometry x="-0.1974" y="1" relative="1" as="geometry">
            <mxPoint as="offset" />
          </mxGeometry>
        </mxCell>
        <mxCell id="3a2kc44z9rLTdfZVaCFz-5" value="" style="edgeStyle=orthogonalEdgeStyle;rounded=0;orthogonalLoop=1;jettySize=auto;html=1;" parent="1" source="3a2kc44z9rLTdfZVaCFz-7" target="3a2kc44z9rLTdfZVaCFz-10" edge="1">
          <mxGeometry relative="1" as="geometry" />
        </mxCell>
        <mxCell id="3a2kc44z9rLTdfZVaCFz-6" value="False" style="edgeLabel;html=1;align=center;verticalAlign=middle;resizable=0;points=[];" parent="3a2kc44z9rLTdfZVaCFz-5" vertex="1" connectable="0">
          <mxGeometry x="-0.2543" relative="1" as="geometry">
            <mxPoint as="offset" />
          </mxGeometry>
        </mxCell>
        <mxCell id="3a2kc44z9rLTdfZVaCFz-7" value="Jadwal kosong?" style="rhombus;whiteSpace=wrap;html=1;strokeWidth=2;" parent="1" vertex="1">
          <mxGeometry x="374" y="170" width="80" height="80" as="geometry" />
        </mxCell>
        <mxCell id="3a2kc44z9rLTdfZVaCFz-16" style="edgeStyle=orthogonalEdgeStyle;rounded=0;orthogonalLoop=1;jettySize=auto;html=1;exitX=1;exitY=1;exitDx=0;exitDy=0;" parent="1" source="3a2kc44z9rLTdfZVaCFz-8" edge="1">
          <mxGeometry relative="1" as="geometry">
            <mxPoint x="690" y="311" as="targetPoint" />
          </mxGeometry>
        </mxCell>
        <mxCell id="3a2kc44z9rLTdfZVaCFz-8" value="Output&lt;br&gt;Jadwal kosong" style="shape=parallelogram;perimeter=parallelogramPerimeter;whiteSpace=wrap;html=1;fixedSize=1;strokeWidth=2;" parent="1" vertex="1">
          <mxGeometry x="550" y="260" width="120" height="60" as="geometry" />
        </mxCell>
        <mxCell id="3a2kc44z9rLTdfZVaCFz-9" value="" style="edgeStyle=orthogonalEdgeStyle;rounded=0;orthogonalLoop=1;jettySize=auto;html=1;" parent="1" source="3a2kc44z9rLTdfZVaCFz-10" target="3a2kc44z9rLTdfZVaCFz-12" edge="1">
          <mxGeometry relative="1" as="geometry" />
        </mxCell>
        <mxCell id="3a2kc44z9rLTdfZVaCFz-10" value="Daftar Jadwal" style="whiteSpace=wrap;html=1;strokeWidth=2;" parent="1" vertex="1">
          <mxGeometry x="170" y="260" width="120" height="60" as="geometry" />
        </mxCell>
        <mxCell id="3a2kc44z9rLTdfZVaCFz-11" style="edgeStyle=orthogonalEdgeStyle;rounded=0;orthogonalLoop=1;jettySize=auto;html=1;entryX=0.5;entryY=0;entryDx=0;entryDy=0;entryPerimeter=0;" parent="1" source="3a2kc44z9rLTdfZVaCFz-12" target="3a2kc44z9rLTdfZVaCFz-14" edge="1">
          <mxGeometry relative="1" as="geometry">
            <mxPoint x="400" y="490" as="targetPoint" />
            <Array as="points">
              <mxPoint x="230" y="480" />
              <mxPoint x="404" y="480" />
            </Array>
          </mxGeometry>
        </mxCell>
        <mxCell id="3a2kc44z9rLTdfZVaCFz-12" value="Output&lt;div&gt;&lt;span style=&quot;background-color: initial;&quot;&gt;Hari,Harga,Stock,&lt;/span&gt;&lt;/div&gt;&lt;div&gt;&lt;span style=&quot;background-color: initial;&quot;&gt;Kota&lt;/span&gt;&lt;div&gt;&lt;br&gt;&lt;/div&gt;&lt;/div&gt;" style="shape=parallelogram;perimeter=parallelogramPerimeter;whiteSpace=wrap;html=1;fixedSize=1;strokeWidth=2;" parent="1" vertex="1">
          <mxGeometry x="170" y="360" width="120" height="60" as="geometry" />
        </mxCell>
        <mxCell id="3a2kc44z9rLTdfZVaCFz-13" value="" style="edgeStyle=orthogonalEdgeStyle;rounded=0;orthogonalLoop=1;jettySize=auto;html=1;exitX=0.5;exitY=1;exitDx=0;exitDy=0;" parent="1" source="3a2kc44z9rLTdfZVaCFz-8" target="3a2kc44z9rLTdfZVaCFz-14" edge="1">
          <mxGeometry relative="1" as="geometry">
            <mxPoint x="400" y="710" as="targetPoint" />
            <mxPoint x="610" y="320" as="sourcePoint" />
            <Array as="points">
              <mxPoint x="610" y="480" />
            </Array>
          </mxGeometry>
        </mxCell>
        <mxCell id="3a2kc44z9rLTdfZVaCFz-14" value="End" style="strokeWidth=2;html=1;shape=mxgraph.flowchart.start_1;whiteSpace=wrap;" parent="1" vertex="1">
          <mxGeometry x="354" y="610" width="100" height="60" as="geometry" />
        </mxCell>
      </root>
    </mxGraphModel>
  </diagram>
  <diagram id="hVH9Q-wcjq3WpRKqlhoO" name="Tambah Jadwal">
    <mxGraphModel dx="1290" dy="621" grid="1" gridSize="10" guides="1" tooltips="1" connect="1" arrows="1" fold="1" page="1" pageScale="1" pageWidth="827" pageHeight="1169" math="0" shadow="0">
      <root>
        <mxCell id="0" />
        <mxCell id="1" parent="0" />
        <mxCell id="WCP4njKrxlJ43_KJ7m4r-1" value="" style="edgeStyle=orthogonalEdgeStyle;rounded=0;orthogonalLoop=1;jettySize=auto;html=1;" parent="1" source="WCP4njKrxlJ43_KJ7m4r-2" target="WCP4njKrxlJ43_KJ7m4r-4" edge="1">
          <mxGeometry relative="1" as="geometry" />
        </mxCell>
        <mxCell id="WCP4njKrxlJ43_KJ7m4r-2" value="Tambah Jadwal" style="strokeWidth=2;html=1;shape=mxgraph.flowchart.start_1;whiteSpace=wrap;" parent="1" vertex="1">
          <mxGeometry x="360" y="40" width="100" height="60" as="geometry" />
        </mxCell>
        <mxCell id="WCP4njKrxlJ43_KJ7m4r-3" value="" style="edgeStyle=orthogonalEdgeStyle;rounded=0;orthogonalLoop=1;jettySize=auto;html=1;" parent="1" source="WCP4njKrxlJ43_KJ7m4r-4" target="WCP4njKrxlJ43_KJ7m4r-6" edge="1">
          <mxGeometry relative="1" as="geometry" />
        </mxCell>
        <mxCell id="WCP4njKrxlJ43_KJ7m4r-4" value="Input&lt;div&gt;Hari Pemesanan&lt;/div&gt;" style="shape=parallelogram;perimeter=parallelogramPerimeter;whiteSpace=wrap;html=1;fixedSize=1;strokeWidth=2;" parent="1" vertex="1">
          <mxGeometry x="350" y="150" width="120" height="60" as="geometry" />
        </mxCell>
        <mxCell id="WCP4njKrxlJ43_KJ7m4r-5" value="" style="edgeStyle=orthogonalEdgeStyle;rounded=0;orthogonalLoop=1;jettySize=auto;html=1;" parent="1" source="WCP4njKrxlJ43_KJ7m4r-6" target="WCP4njKrxlJ43_KJ7m4r-8" edge="1">
          <mxGeometry relative="1" as="geometry" />
        </mxCell>
        <mxCell id="WCP4njKrxlJ43_KJ7m4r-6" value="Input&lt;div&gt;Harga Tiket&lt;/div&gt;" style="shape=parallelogram;perimeter=parallelogramPerimeter;whiteSpace=wrap;html=1;fixedSize=1;strokeWidth=2;" parent="1" vertex="1">
          <mxGeometry x="350" y="240" width="120" height="60" as="geometry" />
        </mxCell>
        <mxCell id="WCP4njKrxlJ43_KJ7m4r-16" value="" style="edgeStyle=orthogonalEdgeStyle;rounded=0;orthogonalLoop=1;jettySize=auto;html=1;" parent="1" source="WCP4njKrxlJ43_KJ7m4r-8" target="WCP4njKrxlJ43_KJ7m4r-15" edge="1">
          <mxGeometry relative="1" as="geometry" />
        </mxCell>
        <mxCell id="WCP4njKrxlJ43_KJ7m4r-8" value="Input&lt;div&gt;Stock Tiket&lt;/div&gt;" style="shape=parallelogram;perimeter=parallelogramPerimeter;whiteSpace=wrap;html=1;fixedSize=1;strokeWidth=2;" parent="1" vertex="1">
          <mxGeometry x="350" y="330" width="120" height="60" as="geometry" />
        </mxCell>
        <mxCell id="WCP4njKrxlJ43_KJ7m4r-12" value="Menambahkan Item dalam Menu" style="whiteSpace=wrap;html=1;strokeWidth=2;" parent="1" vertex="1">
          <mxGeometry x="350" y="630" width="120" height="60" as="geometry" />
        </mxCell>
        <mxCell id="WCP4njKrxlJ43_KJ7m4r-13" value="End" style="strokeWidth=2;html=1;shape=mxgraph.flowchart.start_1;whiteSpace=wrap;" parent="1" vertex="1">
          <mxGeometry x="360" y="740" width="100" height="60" as="geometry" />
        </mxCell>
        <mxCell id="WCP4njKrxlJ43_KJ7m4r-14" style="edgeStyle=orthogonalEdgeStyle;rounded=0;orthogonalLoop=1;jettySize=auto;html=1;exitX=0.5;exitY=1;exitDx=0;exitDy=0;entryX=0.5;entryY=0;entryDx=0;entryDy=0;entryPerimeter=0;" parent="1" source="WCP4njKrxlJ43_KJ7m4r-12" target="WCP4njKrxlJ43_KJ7m4r-13" edge="1">
          <mxGeometry relative="1" as="geometry" />
        </mxCell>
        <mxCell id="WCP4njKrxlJ43_KJ7m4r-23" style="edgeStyle=orthogonalEdgeStyle;rounded=0;orthogonalLoop=1;jettySize=auto;html=1;exitX=0.5;exitY=1;exitDx=0;exitDy=0;" parent="1" source="WCP4njKrxlJ43_KJ7m4r-15" edge="1">
          <mxGeometry relative="1" as="geometry">
            <mxPoint x="410" y="530" as="targetPoint" />
          </mxGeometry>
        </mxCell>
        <mxCell id="WCP4njKrxlJ43_KJ7m4r-15" value="Input&lt;div&gt;Tipe Pesawat&lt;/div&gt;" style="shape=parallelogram;perimeter=parallelogramPerimeter;whiteSpace=wrap;html=1;fixedSize=1;strokeWidth=2;" parent="1" vertex="1">
          <mxGeometry x="350" y="430" width="120" height="60" as="geometry" />
        </mxCell>
        <mxCell id="WCP4njKrxlJ43_KJ7m4r-17" value="" style="edgeStyle=none;orthogonalLoop=1;jettySize=auto;html=1;rounded=0;" parent="1" edge="1">
          <mxGeometry width="100" relative="1" as="geometry">
            <mxPoint x="320" y="160" as="sourcePoint" />
            <mxPoint x="370" y="160" as="targetPoint" />
            <Array as="points" />
          </mxGeometry>
        </mxCell>
        <mxCell id="WCP4njKrxlJ43_KJ7m4r-18" value="" style="edgeStyle=none;orthogonalLoop=1;jettySize=auto;html=1;rounded=0;" parent="1" edge="1">
          <mxGeometry width="100" relative="1" as="geometry">
            <mxPoint x="320" y="250" as="sourcePoint" />
            <mxPoint x="380" y="250" as="targetPoint" />
            <Array as="points" />
          </mxGeometry>
        </mxCell>
        <mxCell id="WCP4njKrxlJ43_KJ7m4r-19" value="" style="edgeStyle=none;orthogonalLoop=1;jettySize=auto;html=1;rounded=0;" parent="1" edge="1">
          <mxGeometry width="100" relative="1" as="geometry">
            <mxPoint x="320" y="340" as="sourcePoint" />
            <mxPoint x="380" y="340" as="targetPoint" />
            <Array as="points" />
          </mxGeometry>
        </mxCell>
        <mxCell id="WCP4njKrxlJ43_KJ7m4r-20" value="" style="edgeStyle=none;orthogonalLoop=1;jettySize=auto;html=1;rounded=0;" parent="1" edge="1">
          <mxGeometry width="100" relative="1" as="geometry">
            <mxPoint x="320" y="440" as="sourcePoint" />
            <mxPoint x="370" y="440" as="targetPoint" />
            <Array as="points" />
          </mxGeometry>
        </mxCell>
        <mxCell id="WCP4njKrxlJ43_KJ7m4r-24" value="Input&lt;div&gt;Kota Awal-Tujuan&lt;/div&gt;" style="shape=parallelogram;perimeter=parallelogramPerimeter;whiteSpace=wrap;html=1;fixedSize=1;strokeWidth=2;fontStyle=1" parent="1" vertex="1">
          <mxGeometry x="346" y="530" width="120" height="60" as="geometry" />
        </mxCell>
        <mxCell id="WCP4njKrxlJ43_KJ7m4r-25" value="" style="edgeStyle=none;orthogonalLoop=1;jettySize=auto;html=1;rounded=0;fontStyle=1" parent="1" edge="1">
          <mxGeometry width="100" relative="1" as="geometry">
            <mxPoint x="306" y="540" as="sourcePoint" />
            <mxPoint x="356" y="540" as="targetPoint" />
            <Array as="points" />
          </mxGeometry>
        </mxCell>
        <mxCell id="WCP4njKrxlJ43_KJ7m4r-27" style="edgeStyle=orthogonalEdgeStyle;rounded=0;orthogonalLoop=1;jettySize=auto;html=1;exitX=0.5;exitY=1;exitDx=0;exitDy=0;entryX=0.45;entryY=-0.044;entryDx=0;entryDy=0;entryPerimeter=0;" parent="1" source="WCP4njKrxlJ43_KJ7m4r-24" target="WCP4njKrxlJ43_KJ7m4r-12" edge="1">
          <mxGeometry relative="1" as="geometry" />
        </mxCell>
      </root>
    </mxGraphModel>
  </diagram>
  <diagram id="tEAr5wUfFGJqhN_y9GWV" name="beli_tiket">
    <mxGraphModel dx="1843" dy="887" grid="1" gridSize="10" guides="1" tooltips="1" connect="1" arrows="1" fold="1" page="1" pageScale="1" pageWidth="850" pageHeight="1100" math="0" shadow="0">
      <root>
        <mxCell id="0" />
        <mxCell id="1" parent="0" />
        <mxCell id="c1xGhqTUAk2KI4BQx3Wm-3" value="" style="edgeStyle=orthogonalEdgeStyle;rounded=0;orthogonalLoop=1;jettySize=auto;html=1;" edge="1" parent="1" source="c1xGhqTUAk2KI4BQx3Wm-1" target="c1xGhqTUAk2KI4BQx3Wm-2">
          <mxGeometry relative="1" as="geometry" />
        </mxCell>
        <mxCell id="c1xGhqTUAk2KI4BQx3Wm-1" value="beli_tiket" style="strokeWidth=2;html=1;shape=mxgraph.flowchart.start_1;whiteSpace=wrap;" vertex="1" parent="1">
          <mxGeometry x="375" y="80" width="100" height="60" as="geometry" />
        </mxCell>
        <mxCell id="c1xGhqTUAk2KI4BQx3Wm-2" value="" style="verticalLabelPosition=bottom;verticalAlign=top;html=1;shape=process;whiteSpace=wrap;rounded=1;size=0.14;arcSize=6;" vertex="1" parent="1">
          <mxGeometry x="375" y="210" width="100" height="60" as="geometry" />
        </mxCell>
        <mxCell id="c1xGhqTUAk2KI4BQx3Wm-6" value="" style="edgeStyle=orthogonalEdgeStyle;rounded=0;orthogonalLoop=1;jettySize=auto;html=1;exitX=0.5;exitY=1;exitDx=0;exitDy=0;" edge="1" parent="1" source="c1xGhqTUAk2KI4BQx3Wm-2" target="c1xGhqTUAk2KI4BQx3Wm-5">
          <mxGeometry relative="1" as="geometry" />
        </mxCell>
        <mxCell id="c1xGhqTUAk2KI4BQx3Wm-4" value="Tampilkan jadwal" style="text;html=1;align=center;verticalAlign=middle;resizable=0;points=[];autosize=1;strokeColor=none;fillColor=none;" vertex="1" parent="1">
          <mxGeometry x="370" y="225" width="110" height="30" as="geometry" />
        </mxCell>
        <mxCell id="c1xGhqTUAk2KI4BQx3Wm-9" value="" style="edgeStyle=orthogonalEdgeStyle;rounded=0;orthogonalLoop=1;jettySize=auto;html=1;" edge="1" parent="1" source="c1xGhqTUAk2KI4BQx3Wm-5" target="c1xGhqTUAk2KI4BQx3Wm-8">
          <mxGeometry relative="1" as="geometry" />
        </mxCell>
        <mxCell id="c1xGhqTUAk2KI4BQx3Wm-5" value="input id tiket yang&lt;div&gt;ingin dibeli&lt;/div&gt;" style="shape=parallelogram;html=1;strokeWidth=2;perimeter=parallelogramPerimeter;whiteSpace=wrap;rounded=1;arcSize=12;size=0.23;" vertex="1" parent="1">
          <mxGeometry x="363" y="330" width="125" height="60" as="geometry" />
        </mxCell>
        <mxCell id="c1xGhqTUAk2KI4BQx3Wm-7" value="" style="edgeStyle=none;orthogonalLoop=1;jettySize=auto;html=1;rounded=0;" edge="1" parent="1">
          <mxGeometry width="100" relative="1" as="geometry">
            <mxPoint x="363" y="340" as="sourcePoint" />
            <mxPoint x="413" y="340" as="targetPoint" />
            <Array as="points" />
          </mxGeometry>
        </mxCell>
        <mxCell id="c1xGhqTUAk2KI4BQx3Wm-12" value="" style="edgeStyle=orthogonalEdgeStyle;rounded=0;orthogonalLoop=1;jettySize=auto;html=1;" edge="1" parent="1" source="c1xGhqTUAk2KI4BQx3Wm-8" target="c1xGhqTUAk2KI4BQx3Wm-11">
          <mxGeometry relative="1" as="geometry" />
        </mxCell>
        <mxCell id="c1xGhqTUAk2KI4BQx3Wm-8" value="input jumlah tiket&amp;nbsp;&lt;div&gt;yang ingin&amp;nbsp;&lt;span style=&quot;background-color: initial;&quot;&gt;dibeli&lt;/span&gt;&lt;/div&gt;" style="shape=parallelogram;html=1;strokeWidth=2;perimeter=parallelogramPerimeter;whiteSpace=wrap;rounded=1;arcSize=12;size=0.23;" vertex="1" parent="1">
          <mxGeometry x="353" y="440" width="145" height="60" as="geometry" />
        </mxCell>
        <mxCell id="c1xGhqTUAk2KI4BQx3Wm-10" value="" style="edgeStyle=none;orthogonalLoop=1;jettySize=auto;html=1;rounded=0;" edge="1" parent="1">
          <mxGeometry width="100" relative="1" as="geometry">
            <mxPoint x="353" y="450" as="sourcePoint" />
            <mxPoint x="403" y="450" as="targetPoint" />
            <Array as="points" />
          </mxGeometry>
        </mxCell>
        <mxCell id="c1xGhqTUAk2KI4BQx3Wm-15" value="" style="edgeStyle=orthogonalEdgeStyle;rounded=0;orthogonalLoop=1;jettySize=auto;html=1;" edge="1" parent="1" source="c1xGhqTUAk2KI4BQx3Wm-11" target="c1xGhqTUAk2KI4BQx3Wm-14">
          <mxGeometry relative="1" as="geometry" />
        </mxCell>
        <mxCell id="c1xGhqTUAk2KI4BQx3Wm-17" value="True" style="edgeLabel;html=1;align=center;verticalAlign=middle;resizable=0;points=[];" vertex="1" connectable="0" parent="c1xGhqTUAk2KI4BQx3Wm-15">
          <mxGeometry x="0.0099" y="-1" relative="1" as="geometry">
            <mxPoint x="1" y="-1" as="offset" />
          </mxGeometry>
        </mxCell>
        <mxCell id="c1xGhqTUAk2KI4BQx3Wm-20" value="" style="edgeStyle=orthogonalEdgeStyle;rounded=0;orthogonalLoop=1;jettySize=auto;html=1;" edge="1" parent="1" source="c1xGhqTUAk2KI4BQx3Wm-11" target="c1xGhqTUAk2KI4BQx3Wm-19">
          <mxGeometry relative="1" as="geometry" />
        </mxCell>
        <mxCell id="c1xGhqTUAk2KI4BQx3Wm-21" value="False" style="edgeLabel;html=1;align=center;verticalAlign=middle;resizable=0;points=[];" vertex="1" connectable="0" parent="c1xGhqTUAk2KI4BQx3Wm-20">
          <mxGeometry x="-0.0155" y="1" relative="1" as="geometry">
            <mxPoint as="offset" />
          </mxGeometry>
        </mxCell>
        <mxCell id="c1xGhqTUAk2KI4BQx3Wm-11" value="jumlah tiket yang ingin dibeli melebihi stok?" style="strokeWidth=2;html=1;shape=mxgraph.flowchart.decision;whiteSpace=wrap;" vertex="1" parent="1">
          <mxGeometry x="369" y="580" width="114.5" height="110" as="geometry" />
        </mxCell>
        <mxCell id="c1xGhqTUAk2KI4BQx3Wm-16" style="edgeStyle=orthogonalEdgeStyle;rounded=0;orthogonalLoop=1;jettySize=auto;html=1;entryX=0;entryY=0.5;entryDx=0;entryDy=0;exitX=0.5;exitY=1;exitDx=0;exitDy=0;" edge="1" parent="1" source="c1xGhqTUAk2KI4BQx3Wm-14" target="c1xGhqTUAk2KI4BQx3Wm-8">
          <mxGeometry relative="1" as="geometry">
            <Array as="points">
              <mxPoint x="426" y="870" />
              <mxPoint x="300" y="870" />
              <mxPoint x="300" y="470" />
            </Array>
          </mxGeometry>
        </mxCell>
        <mxCell id="c1xGhqTUAk2KI4BQx3Wm-14" value="pembelian tiket melebihi kapasitas" style="shape=parallelogram;html=1;strokeWidth=2;perimeter=parallelogramPerimeter;whiteSpace=wrap;rounded=1;arcSize=12;size=0.23;" vertex="1" parent="1">
          <mxGeometry x="375.5" y="770" width="100" height="60" as="geometry" />
        </mxCell>
        <mxCell id="c1xGhqTUAk2KI4BQx3Wm-18" value="" style="edgeStyle=none;orthogonalLoop=1;jettySize=auto;html=1;rounded=0;" edge="1" parent="1">
          <mxGeometry width="100" relative="1" as="geometry">
            <mxPoint x="431" y="822" as="sourcePoint" />
            <mxPoint x="481" y="822" as="targetPoint" />
            <Array as="points" />
          </mxGeometry>
        </mxCell>
        <mxCell id="c1xGhqTUAk2KI4BQx3Wm-23" value="" style="edgeStyle=orthogonalEdgeStyle;rounded=0;orthogonalLoop=1;jettySize=auto;html=1;" edge="1" parent="1" source="c1xGhqTUAk2KI4BQx3Wm-19" target="c1xGhqTUAk2KI4BQx3Wm-22">
          <mxGeometry relative="1" as="geometry" />
        </mxCell>
        <mxCell id="c1xGhqTUAk2KI4BQx3Wm-19" value="jumlah tiket dikali harga" style="rounded=1;whiteSpace=wrap;html=1;absoluteArcSize=1;arcSize=14;strokeWidth=2;" vertex="1" parent="1">
          <mxGeometry x="580" y="585" width="100" height="100" as="geometry" />
        </mxCell>
        <mxCell id="c1xGhqTUAk2KI4BQx3Wm-26" value="" style="edgeStyle=orthogonalEdgeStyle;rounded=0;orthogonalLoop=1;jettySize=auto;html=1;" edge="1" parent="1" source="c1xGhqTUAk2KI4BQx3Wm-22" target="c1xGhqTUAk2KI4BQx3Wm-25">
          <mxGeometry relative="1" as="geometry" />
        </mxCell>
        <mxCell id="c1xGhqTUAk2KI4BQx3Wm-22" value="harga total tiket" style="shape=parallelogram;html=1;strokeWidth=2;perimeter=parallelogramPerimeter;whiteSpace=wrap;rounded=1;arcSize=12;size=0.23;" vertex="1" parent="1">
          <mxGeometry x="730" y="605" width="100" height="60" as="geometry" />
        </mxCell>
        <mxCell id="c1xGhqTUAk2KI4BQx3Wm-24" value="" style="edgeStyle=none;orthogonalLoop=1;jettySize=auto;html=1;rounded=0;" edge="1" parent="1">
          <mxGeometry width="100" relative="1" as="geometry">
            <mxPoint x="780" y="650" as="sourcePoint" />
            <mxPoint x="830" y="650" as="targetPoint" />
            <Array as="points" />
          </mxGeometry>
        </mxCell>
        <mxCell id="c1xGhqTUAk2KI4BQx3Wm-29" value="" style="edgeStyle=orthogonalEdgeStyle;rounded=0;orthogonalLoop=1;jettySize=auto;html=1;" edge="1" parent="1" source="c1xGhqTUAk2KI4BQx3Wm-25" target="c1xGhqTUAk2KI4BQx3Wm-28">
          <mxGeometry relative="1" as="geometry" />
        </mxCell>
        <mxCell id="c1xGhqTUAk2KI4BQx3Wm-25" value="input konfirmasi&lt;div&gt;pembelian&lt;/div&gt;" style="shape=parallelogram;html=1;strokeWidth=2;perimeter=parallelogramPerimeter;whiteSpace=wrap;rounded=1;arcSize=12;size=0.23;" vertex="1" parent="1">
          <mxGeometry x="870" y="605" width="100" height="60" as="geometry" />
        </mxCell>
        <mxCell id="c1xGhqTUAk2KI4BQx3Wm-27" value="" style="edgeStyle=none;orthogonalLoop=1;jettySize=auto;html=1;rounded=0;" edge="1" parent="1">
          <mxGeometry width="100" relative="1" as="geometry">
            <mxPoint x="870" y="620" as="sourcePoint" />
            <mxPoint x="920" y="620" as="targetPoint" />
            <Array as="points" />
          </mxGeometry>
        </mxCell>
        <mxCell id="c1xGhqTUAk2KI4BQx3Wm-31" value="" style="edgeStyle=orthogonalEdgeStyle;rounded=0;orthogonalLoop=1;jettySize=auto;html=1;" edge="1" parent="1" source="c1xGhqTUAk2KI4BQx3Wm-28" target="c1xGhqTUAk2KI4BQx3Wm-30">
          <mxGeometry relative="1" as="geometry" />
        </mxCell>
        <mxCell id="c1xGhqTUAk2KI4BQx3Wm-35" value="True" style="edgeLabel;html=1;align=center;verticalAlign=middle;resizable=0;points=[];" vertex="1" connectable="0" parent="c1xGhqTUAk2KI4BQx3Wm-31">
          <mxGeometry x="-0.288" relative="1" as="geometry">
            <mxPoint as="offset" />
          </mxGeometry>
        </mxCell>
        <mxCell id="c1xGhqTUAk2KI4BQx3Wm-34" value="" style="edgeStyle=orthogonalEdgeStyle;rounded=0;orthogonalLoop=1;jettySize=auto;html=1;entryX=1;entryY=0.5;entryDx=0;entryDy=0;" edge="1" parent="1" source="c1xGhqTUAk2KI4BQx3Wm-28" target="c1xGhqTUAk2KI4BQx3Wm-8">
          <mxGeometry relative="1" as="geometry">
            <mxPoint x="1020" y="780" as="targetPoint" />
            <Array as="points">
              <mxPoint x="1070" y="780" />
              <mxPoint x="1070" y="470" />
            </Array>
          </mxGeometry>
        </mxCell>
        <mxCell id="c1xGhqTUAk2KI4BQx3Wm-36" value="False" style="edgeLabel;html=1;align=center;verticalAlign=middle;resizable=0;points=[];" vertex="1" connectable="0" parent="c1xGhqTUAk2KI4BQx3Wm-34">
          <mxGeometry x="-0.04" relative="1" as="geometry">
            <mxPoint as="offset" />
          </mxGeometry>
        </mxCell>
        <mxCell id="c1xGhqTUAk2KI4BQx3Wm-37" value="False" style="edgeLabel;html=1;align=center;verticalAlign=middle;resizable=0;points=[];" vertex="1" connectable="0" parent="c1xGhqTUAk2KI4BQx3Wm-34">
          <mxGeometry x="-0.9021" y="1" relative="1" as="geometry">
            <mxPoint as="offset" />
          </mxGeometry>
        </mxCell>
        <mxCell id="c1xGhqTUAk2KI4BQx3Wm-28" value="jawaban =&amp;nbsp; &#39;iya&#39;" style="strokeWidth=2;html=1;shape=mxgraph.flowchart.decision;whiteSpace=wrap;" vertex="1" parent="1">
          <mxGeometry x="870" y="730" width="100" height="100" as="geometry" />
        </mxCell>
        <mxCell id="c1xGhqTUAk2KI4BQx3Wm-38" style="edgeStyle=orthogonalEdgeStyle;rounded=0;orthogonalLoop=1;jettySize=auto;html=1;entryX=0.5;entryY=0;entryDx=0;entryDy=0;entryPerimeter=0;exitX=0.5;exitY=1;exitDx=0;exitDy=0;" edge="1" parent="1" source="c1xGhqTUAk2KI4BQx3Wm-30" target="c1xGhqTUAk2KI4BQx3Wm-39">
          <mxGeometry relative="1" as="geometry">
            <mxPoint x="420" y="1110.800048828125" as="targetPoint" />
          </mxGeometry>
        </mxCell>
        <mxCell id="c1xGhqTUAk2KI4BQx3Wm-30" value="menambahkan riwayat pembelian" style="rounded=1;whiteSpace=wrap;html=1;absoluteArcSize=1;arcSize=14;strokeWidth=2;" vertex="1" parent="1">
          <mxGeometry x="870" y="900" width="100" height="100" as="geometry" />
        </mxCell>
        <mxCell id="c1xGhqTUAk2KI4BQx3Wm-39" value="END" style="strokeWidth=2;html=1;shape=mxgraph.flowchart.start_1;whiteSpace=wrap;" vertex="1" parent="1">
          <mxGeometry x="375.5" y="1110" width="100" height="60" as="geometry" />
        </mxCell>
      </root>
    </mxGraphModel>
  </diagram>
  <diagram id="h9teVJLWQ_Nyz9pwuJoZ" name="menu_pengguna">
    <mxGraphModel dx="2693" dy="887" grid="1" gridSize="10" guides="1" tooltips="1" connect="1" arrows="1" fold="1" page="1" pageScale="1" pageWidth="850" pageHeight="1100" math="0" shadow="0">
      <root>
        <mxCell id="0" />
        <mxCell id="1" parent="0" />
        <mxCell id="Lpd96_N9YKVm7yqH5dZ1-3" value="" style="edgeStyle=orthogonalEdgeStyle;rounded=0;orthogonalLoop=1;jettySize=auto;html=1;" edge="1" parent="1" source="Lpd96_N9YKVm7yqH5dZ1-1" target="Lpd96_N9YKVm7yqH5dZ1-2">
          <mxGeometry relative="1" as="geometry" />
        </mxCell>
        <mxCell id="Lpd96_N9YKVm7yqH5dZ1-1" value="menu_pengguna" style="strokeWidth=2;html=1;shape=mxgraph.flowchart.start_1;whiteSpace=wrap;" vertex="1" parent="1">
          <mxGeometry x="375" y="50" width="100" height="60" as="geometry" />
        </mxCell>
        <mxCell id="Lpd96_N9YKVm7yqH5dZ1-6" value="" style="edgeStyle=orthogonalEdgeStyle;rounded=0;orthogonalLoop=1;jettySize=auto;html=1;" edge="1" parent="1" source="Lpd96_N9YKVm7yqH5dZ1-2" target="Lpd96_N9YKVm7yqH5dZ1-5">
          <mxGeometry relative="1" as="geometry" />
        </mxCell>
        <mxCell id="Lpd96_N9YKVm7yqH5dZ1-2" value="opsi menu pengguna" style="shape=parallelogram;html=1;strokeWidth=2;perimeter=parallelogramPerimeter;whiteSpace=wrap;rounded=1;arcSize=12;size=0.23;" vertex="1" parent="1">
          <mxGeometry x="375" y="180" width="100" height="60" as="geometry" />
        </mxCell>
        <mxCell id="Lpd96_N9YKVm7yqH5dZ1-4" value="" style="edgeStyle=none;orthogonalLoop=1;jettySize=auto;html=1;rounded=0;" edge="1" parent="1">
          <mxGeometry width="100" relative="1" as="geometry">
            <mxPoint x="425" y="230" as="sourcePoint" />
            <mxPoint x="475" y="230" as="targetPoint" />
            <Array as="points" />
          </mxGeometry>
        </mxCell>
        <mxCell id="Lpd96_N9YKVm7yqH5dZ1-9" value="" style="edgeStyle=orthogonalEdgeStyle;rounded=0;orthogonalLoop=1;jettySize=auto;html=1;" edge="1" parent="1" source="Lpd96_N9YKVm7yqH5dZ1-5" target="Lpd96_N9YKVm7yqH5dZ1-8">
          <mxGeometry relative="1" as="geometry" />
        </mxCell>
        <mxCell id="Lpd96_N9YKVm7yqH5dZ1-5" value="Input pilihan pengguna" style="shape=parallelogram;html=1;strokeWidth=2;perimeter=parallelogramPerimeter;whiteSpace=wrap;rounded=1;arcSize=12;size=0.23;" vertex="1" parent="1">
          <mxGeometry x="375" y="290" width="100" height="60" as="geometry" />
        </mxCell>
        <mxCell id="Lpd96_N9YKVm7yqH5dZ1-7" value="" style="edgeStyle=none;orthogonalLoop=1;jettySize=auto;html=1;rounded=0;" edge="1" parent="1">
          <mxGeometry width="100" relative="1" as="geometry">
            <mxPoint x="430" y="340" as="sourcePoint" />
            <mxPoint x="480" y="340" as="targetPoint" />
            <Array as="points" />
          </mxGeometry>
        </mxCell>
        <mxCell id="Lpd96_N9YKVm7yqH5dZ1-11" value="" style="edgeStyle=orthogonalEdgeStyle;rounded=0;orthogonalLoop=1;jettySize=auto;html=1;" edge="1" parent="1" source="Lpd96_N9YKVm7yqH5dZ1-8" target="Lpd96_N9YKVm7yqH5dZ1-10">
          <mxGeometry relative="1" as="geometry" />
        </mxCell>
        <mxCell id="Lpd96_N9YKVm7yqH5dZ1-13" value="True" style="edgeLabel;html=1;align=center;verticalAlign=middle;resizable=0;points=[];" vertex="1" connectable="0" parent="Lpd96_N9YKVm7yqH5dZ1-11">
          <mxGeometry x="-0.0171" relative="1" as="geometry">
            <mxPoint as="offset" />
          </mxGeometry>
        </mxCell>
        <mxCell id="Lpd96_N9YKVm7yqH5dZ1-15" value="" style="edgeStyle=orthogonalEdgeStyle;rounded=0;orthogonalLoop=1;jettySize=auto;html=1;" edge="1" parent="1" source="Lpd96_N9YKVm7yqH5dZ1-8" target="Lpd96_N9YKVm7yqH5dZ1-14">
          <mxGeometry relative="1" as="geometry" />
        </mxCell>
        <mxCell id="Lpd96_N9YKVm7yqH5dZ1-16" value="False" style="edgeLabel;html=1;align=center;verticalAlign=middle;resizable=0;points=[];" vertex="1" connectable="0" parent="Lpd96_N9YKVm7yqH5dZ1-15">
          <mxGeometry x="0.008" y="-2" relative="1" as="geometry">
            <mxPoint as="offset" />
          </mxGeometry>
        </mxCell>
        <mxCell id="Lpd96_N9YKVm7yqH5dZ1-8" value="Pilihan = 1?" style="strokeWidth=2;html=1;shape=mxgraph.flowchart.decision;whiteSpace=wrap;" vertex="1" parent="1">
          <mxGeometry x="375" y="410" width="100" height="100" as="geometry" />
        </mxCell>
        <mxCell id="Lpd96_N9YKVm7yqH5dZ1-10" value="" style="verticalLabelPosition=bottom;verticalAlign=top;html=1;shape=process;whiteSpace=wrap;rounded=1;size=0.14;arcSize=6;" vertex="1" parent="1">
          <mxGeometry x="375" y="580" width="100" height="60" as="geometry" />
        </mxCell>
        <mxCell id="Lpd96_N9YKVm7yqH5dZ1-55" style="edgeStyle=orthogonalEdgeStyle;rounded=0;orthogonalLoop=1;jettySize=auto;html=1;exitX=0.5;exitY=1;exitDx=0;exitDy=0;" edge="1" parent="1" source="Lpd96_N9YKVm7yqH5dZ1-10">
          <mxGeometry relative="1" as="geometry">
            <mxPoint x="390" y="320" as="targetPoint" />
            <Array as="points">
              <mxPoint x="425" y="670" />
              <mxPoint x="80" y="670" />
              <mxPoint x="80" y="320" />
            </Array>
          </mxGeometry>
        </mxCell>
        <mxCell id="Lpd96_N9YKVm7yqH5dZ1-12" value="Tampilkan jadwal" style="text;html=1;align=center;verticalAlign=middle;resizable=0;points=[];autosize=1;strokeColor=none;fillColor=none;" vertex="1" parent="1">
          <mxGeometry x="370" y="595" width="110" height="30" as="geometry" />
        </mxCell>
        <mxCell id="Lpd96_N9YKVm7yqH5dZ1-18" value="" style="edgeStyle=orthogonalEdgeStyle;rounded=0;orthogonalLoop=1;jettySize=auto;html=1;" edge="1" parent="1" source="Lpd96_N9YKVm7yqH5dZ1-14" target="Lpd96_N9YKVm7yqH5dZ1-17">
          <mxGeometry relative="1" as="geometry" />
        </mxCell>
        <mxCell id="Lpd96_N9YKVm7yqH5dZ1-23" value="True" style="edgeLabel;html=1;align=center;verticalAlign=middle;resizable=0;points=[];" vertex="1" connectable="0" parent="Lpd96_N9YKVm7yqH5dZ1-18">
          <mxGeometry x="-0.1429" relative="1" as="geometry">
            <mxPoint as="offset" />
          </mxGeometry>
        </mxCell>
        <mxCell id="Lpd96_N9YKVm7yqH5dZ1-21" value="" style="edgeStyle=orthogonalEdgeStyle;rounded=0;orthogonalLoop=1;jettySize=auto;html=1;" edge="1" parent="1" source="Lpd96_N9YKVm7yqH5dZ1-14" target="Lpd96_N9YKVm7yqH5dZ1-20">
          <mxGeometry relative="1" as="geometry" />
        </mxCell>
        <mxCell id="Lpd96_N9YKVm7yqH5dZ1-22" value="False" style="edgeLabel;html=1;align=center;verticalAlign=middle;resizable=0;points=[];" vertex="1" connectable="0" parent="Lpd96_N9YKVm7yqH5dZ1-21">
          <mxGeometry x="0.16" y="-4" relative="1" as="geometry">
            <mxPoint x="-7" as="offset" />
          </mxGeometry>
        </mxCell>
        <mxCell id="Lpd96_N9YKVm7yqH5dZ1-14" value="Pilihan = 2?" style="strokeWidth=2;html=1;shape=mxgraph.flowchart.decision;whiteSpace=wrap;" vertex="1" parent="1">
          <mxGeometry x="550" y="410" width="100" height="100" as="geometry" />
        </mxCell>
        <mxCell id="Lpd96_N9YKVm7yqH5dZ1-17" value="" style="verticalLabelPosition=bottom;verticalAlign=top;html=1;shape=process;whiteSpace=wrap;rounded=1;size=0.14;arcSize=6;" vertex="1" parent="1">
          <mxGeometry x="550" y="580" width="100" height="60" as="geometry" />
        </mxCell>
        <mxCell id="Lpd96_N9YKVm7yqH5dZ1-56" style="edgeStyle=orthogonalEdgeStyle;rounded=0;orthogonalLoop=1;jettySize=auto;html=1;entryX=0;entryY=0.5;entryDx=0;entryDy=0;exitX=0.5;exitY=1;exitDx=0;exitDy=0;" edge="1" parent="1" source="Lpd96_N9YKVm7yqH5dZ1-17" target="Lpd96_N9YKVm7yqH5dZ1-5">
          <mxGeometry relative="1" as="geometry">
            <mxPoint x="610" y="660" as="sourcePoint" />
            <Array as="points">
              <mxPoint x="600" y="710" />
              <mxPoint x="50" y="710" />
              <mxPoint x="50" y="320" />
            </Array>
          </mxGeometry>
        </mxCell>
        <mxCell id="Lpd96_N9YKVm7yqH5dZ1-19" value="Beli_tiket" style="text;html=1;align=center;verticalAlign=middle;resizable=0;points=[];autosize=1;strokeColor=none;fillColor=none;" vertex="1" parent="1">
          <mxGeometry x="565" y="595" width="70" height="30" as="geometry" />
        </mxCell>
        <mxCell id="Lpd96_N9YKVm7yqH5dZ1-25" value="" style="edgeStyle=orthogonalEdgeStyle;rounded=0;orthogonalLoop=1;jettySize=auto;html=1;" edge="1" parent="1" source="Lpd96_N9YKVm7yqH5dZ1-20" target="Lpd96_N9YKVm7yqH5dZ1-24">
          <mxGeometry relative="1" as="geometry" />
        </mxCell>
        <mxCell id="Lpd96_N9YKVm7yqH5dZ1-29" value="True" style="edgeLabel;html=1;align=center;verticalAlign=middle;resizable=0;points=[];" vertex="1" connectable="0" parent="Lpd96_N9YKVm7yqH5dZ1-25">
          <mxGeometry x="-0.1429" y="2" relative="1" as="geometry">
            <mxPoint as="offset" />
          </mxGeometry>
        </mxCell>
        <mxCell id="Lpd96_N9YKVm7yqH5dZ1-44" value="" style="edgeStyle=orthogonalEdgeStyle;rounded=0;orthogonalLoop=1;jettySize=auto;html=1;" edge="1" parent="1" source="Lpd96_N9YKVm7yqH5dZ1-20" target="Lpd96_N9YKVm7yqH5dZ1-43">
          <mxGeometry relative="1" as="geometry" />
        </mxCell>
        <mxCell id="Lpd96_N9YKVm7yqH5dZ1-45" value="False" style="edgeLabel;html=1;align=center;verticalAlign=middle;resizable=0;points=[];" vertex="1" connectable="0" parent="Lpd96_N9YKVm7yqH5dZ1-44">
          <mxGeometry x="0.1104" y="-1" relative="1" as="geometry">
            <mxPoint as="offset" />
          </mxGeometry>
        </mxCell>
        <mxCell id="Lpd96_N9YKVm7yqH5dZ1-20" value="Pilihan = 3?" style="strokeWidth=2;html=1;shape=mxgraph.flowchart.decision;whiteSpace=wrap;" vertex="1" parent="1">
          <mxGeometry x="735" y="410" width="100" height="100" as="geometry" />
        </mxCell>
        <mxCell id="Lpd96_N9YKVm7yqH5dZ1-24" value="" style="shape=parallelogram;html=1;strokeWidth=2;perimeter=parallelogramPerimeter;whiteSpace=wrap;rounded=1;arcSize=12;size=0.23;" vertex="1" parent="1">
          <mxGeometry x="700" y="580" width="170" height="60" as="geometry" />
        </mxCell>
        <mxCell id="Lpd96_N9YKVm7yqH5dZ1-32" value="" style="edgeStyle=orthogonalEdgeStyle;rounded=0;orthogonalLoop=1;jettySize=auto;html=1;" edge="1" parent="1" source="Lpd96_N9YKVm7yqH5dZ1-27" target="Lpd96_N9YKVm7yqH5dZ1-31">
          <mxGeometry relative="1" as="geometry" />
        </mxCell>
        <mxCell id="Lpd96_N9YKVm7yqH5dZ1-27" value="input id tiket yang&amp;nbsp;&lt;div&gt;ingin dibatalkan&lt;/div&gt;" style="text;html=1;align=center;verticalAlign=middle;resizable=0;points=[];autosize=1;strokeColor=none;fillColor=none;" vertex="1" parent="1">
          <mxGeometry x="725" y="590" width="120" height="40" as="geometry" />
        </mxCell>
        <mxCell id="Lpd96_N9YKVm7yqH5dZ1-30" value="" style="edgeStyle=none;orthogonalLoop=1;jettySize=auto;html=1;rounded=0;" edge="1" parent="1">
          <mxGeometry width="100" relative="1" as="geometry">
            <mxPoint x="710" y="590" as="sourcePoint" />
            <mxPoint x="760" y="590" as="targetPoint" />
            <Array as="points" />
          </mxGeometry>
        </mxCell>
        <mxCell id="Lpd96_N9YKVm7yqH5dZ1-36" value="" style="edgeStyle=orthogonalEdgeStyle;rounded=0;orthogonalLoop=1;jettySize=auto;html=1;" edge="1" parent="1" source="Lpd96_N9YKVm7yqH5dZ1-31" target="Lpd96_N9YKVm7yqH5dZ1-35">
          <mxGeometry relative="1" as="geometry" />
        </mxCell>
        <mxCell id="Lpd96_N9YKVm7yqH5dZ1-31" value="konfirmasi pembatalan" style="shape=parallelogram;html=1;strokeWidth=2;perimeter=parallelogramPerimeter;whiteSpace=wrap;rounded=1;arcSize=12;size=0.23;" vertex="1" parent="1">
          <mxGeometry x="735" y="690" width="100" height="60" as="geometry" />
        </mxCell>
        <mxCell id="Lpd96_N9YKVm7yqH5dZ1-34" value="" style="edgeStyle=none;orthogonalLoop=1;jettySize=auto;html=1;rounded=0;" edge="1" parent="1">
          <mxGeometry width="100" relative="1" as="geometry">
            <mxPoint x="725" y="700" as="sourcePoint" />
            <mxPoint x="775" y="700" as="targetPoint" />
            <Array as="points" />
          </mxGeometry>
        </mxCell>
        <mxCell id="Lpd96_N9YKVm7yqH5dZ1-41" value="" style="edgeStyle=orthogonalEdgeStyle;rounded=0;orthogonalLoop=1;jettySize=auto;html=1;" edge="1" parent="1" source="Lpd96_N9YKVm7yqH5dZ1-35" target="Lpd96_N9YKVm7yqH5dZ1-40">
          <mxGeometry relative="1" as="geometry" />
        </mxCell>
        <mxCell id="Lpd96_N9YKVm7yqH5dZ1-42" value="True" style="edgeLabel;html=1;align=center;verticalAlign=middle;resizable=0;points=[];" vertex="1" connectable="0" parent="Lpd96_N9YKVm7yqH5dZ1-41">
          <mxGeometry x="-0.12" y="5" relative="1" as="geometry">
            <mxPoint x="-5" as="offset" />
          </mxGeometry>
        </mxCell>
        <mxCell id="Lpd96_N9YKVm7yqH5dZ1-35" value="jawaban iya?" style="strokeWidth=2;html=1;shape=mxgraph.flowchart.decision;whiteSpace=wrap;" vertex="1" parent="1">
          <mxGeometry x="735" y="800" width="100" height="100" as="geometry" />
        </mxCell>
        <mxCell id="Lpd96_N9YKVm7yqH5dZ1-54" style="edgeStyle=orthogonalEdgeStyle;rounded=0;orthogonalLoop=1;jettySize=auto;html=1;entryX=0;entryY=0.5;entryDx=0;entryDy=0;exitX=0.5;exitY=1;exitDx=0;exitDy=0;" edge="1" parent="1" source="Lpd96_N9YKVm7yqH5dZ1-40" target="Lpd96_N9YKVm7yqH5dZ1-5">
          <mxGeometry relative="1" as="geometry">
            <Array as="points">
              <mxPoint x="785" y="1100" />
              <mxPoint x="30" y="1100" />
              <mxPoint x="30" y="320" />
            </Array>
          </mxGeometry>
        </mxCell>
        <mxCell id="Lpd96_N9YKVm7yqH5dZ1-40" value="pembatalan tiket" style="rounded=1;whiteSpace=wrap;html=1;absoluteArcSize=1;arcSize=14;strokeWidth=2;" vertex="1" parent="1">
          <mxGeometry x="735" y="960" width="100" height="100" as="geometry" />
        </mxCell>
        <mxCell id="Lpd96_N9YKVm7yqH5dZ1-47" value="" style="edgeStyle=orthogonalEdgeStyle;rounded=0;orthogonalLoop=1;jettySize=auto;html=1;" edge="1" parent="1" source="Lpd96_N9YKVm7yqH5dZ1-43" target="Lpd96_N9YKVm7yqH5dZ1-46">
          <mxGeometry relative="1" as="geometry" />
        </mxCell>
        <mxCell id="Lpd96_N9YKVm7yqH5dZ1-60" value="True" style="edgeLabel;html=1;align=center;verticalAlign=middle;resizable=0;points=[];" vertex="1" connectable="0" parent="Lpd96_N9YKVm7yqH5dZ1-47">
          <mxGeometry x="-0.1948" y="-1" relative="1" as="geometry">
            <mxPoint y="-1" as="offset" />
          </mxGeometry>
        </mxCell>
        <mxCell id="Lpd96_N9YKVm7yqH5dZ1-50" value="" style="edgeStyle=orthogonalEdgeStyle;rounded=0;orthogonalLoop=1;jettySize=auto;html=1;" edge="1" parent="1" source="Lpd96_N9YKVm7yqH5dZ1-43" target="Lpd96_N9YKVm7yqH5dZ1-49">
          <mxGeometry relative="1" as="geometry" />
        </mxCell>
        <mxCell id="Lpd96_N9YKVm7yqH5dZ1-59" value="False" style="edgeLabel;html=1;align=center;verticalAlign=middle;resizable=0;points=[];" vertex="1" connectable="0" parent="Lpd96_N9YKVm7yqH5dZ1-50">
          <mxGeometry x="-0.0317" y="3" relative="1" as="geometry">
            <mxPoint x="-1" as="offset" />
          </mxGeometry>
        </mxCell>
        <mxCell id="Lpd96_N9YKVm7yqH5dZ1-43" value="Pilihan = 4?" style="strokeWidth=2;html=1;shape=mxgraph.flowchart.decision;whiteSpace=wrap;" vertex="1" parent="1">
          <mxGeometry x="960" y="410" width="100" height="100" as="geometry" />
        </mxCell>
        <mxCell id="Lpd96_N9YKVm7yqH5dZ1-53" style="edgeStyle=orthogonalEdgeStyle;rounded=0;orthogonalLoop=1;jettySize=auto;html=1;entryX=0;entryY=0.5;entryDx=0;entryDy=0;" edge="1" parent="1" source="Lpd96_N9YKVm7yqH5dZ1-46" target="Lpd96_N9YKVm7yqH5dZ1-5">
          <mxGeometry relative="1" as="geometry">
            <Array as="points">
              <mxPoint x="1010" y="1140" />
              <mxPoint x="-20" y="1140" />
              <mxPoint x="-20" y="320" />
            </Array>
          </mxGeometry>
        </mxCell>
        <mxCell id="Lpd96_N9YKVm7yqH5dZ1-46" value="Daftar pembelian" style="shape=parallelogram;html=1;strokeWidth=2;perimeter=parallelogramPerimeter;whiteSpace=wrap;rounded=1;arcSize=12;size=0.23;" vertex="1" parent="1">
          <mxGeometry x="960" y="565" width="100" height="60" as="geometry" />
        </mxCell>
        <mxCell id="Lpd96_N9YKVm7yqH5dZ1-48" value="" style="edgeStyle=none;orthogonalLoop=1;jettySize=auto;html=1;rounded=0;" edge="1" parent="1">
          <mxGeometry width="100" relative="1" as="geometry">
            <mxPoint x="1020" y="609.5" as="sourcePoint" />
            <mxPoint x="1070" y="609.5" as="targetPoint" />
            <Array as="points" />
          </mxGeometry>
        </mxCell>
        <mxCell id="Lpd96_N9YKVm7yqH5dZ1-51" style="edgeStyle=orthogonalEdgeStyle;rounded=0;orthogonalLoop=1;jettySize=auto;html=1;exitX=0.5;exitY=1;exitDx=0;exitDy=0;exitPerimeter=0;entryX=0.5;entryY=0;entryDx=0;entryDy=0;entryPerimeter=0;" edge="1" parent="1" source="Lpd96_N9YKVm7yqH5dZ1-49" target="Lpd96_N9YKVm7yqH5dZ1-52">
          <mxGeometry relative="1" as="geometry">
            <mxPoint x="425" y="1322.4000244140625" as="targetPoint" />
            <mxPoint x="1085" y="460" as="sourcePoint" />
            <Array as="points">
              <mxPoint x="1200" y="1270" />
              <mxPoint x="425" y="1270" />
            </Array>
          </mxGeometry>
        </mxCell>
        <mxCell id="Lpd96_N9YKVm7yqH5dZ1-57" style="edgeStyle=orthogonalEdgeStyle;rounded=0;orthogonalLoop=1;jettySize=auto;html=1;entryX=1;entryY=0.5;entryDx=0;entryDy=0;exitX=1;exitY=0.5;exitDx=0;exitDy=0;exitPerimeter=0;" edge="1" parent="1" source="Lpd96_N9YKVm7yqH5dZ1-49" target="Lpd96_N9YKVm7yqH5dZ1-5">
          <mxGeometry relative="1" as="geometry">
            <Array as="points">
              <mxPoint x="1310" y="460" />
              <mxPoint x="1310" y="320" />
            </Array>
          </mxGeometry>
        </mxCell>
        <mxCell id="Lpd96_N9YKVm7yqH5dZ1-58" value="False" style="edgeLabel;html=1;align=center;verticalAlign=middle;resizable=0;points=[];" vertex="1" connectable="0" parent="Lpd96_N9YKVm7yqH5dZ1-57">
          <mxGeometry x="-0.9413" y="-3" relative="1" as="geometry">
            <mxPoint x="-1" as="offset" />
          </mxGeometry>
        </mxCell>
        <mxCell id="Lpd96_N9YKVm7yqH5dZ1-49" value="Pilihan = 5?" style="strokeWidth=2;html=1;shape=mxgraph.flowchart.decision;whiteSpace=wrap;" vertex="1" parent="1">
          <mxGeometry x="1150" y="410" width="100" height="100" as="geometry" />
        </mxCell>
        <mxCell id="Lpd96_N9YKVm7yqH5dZ1-52" value="END" style="strokeWidth=2;html=1;shape=mxgraph.flowchart.start_1;whiteSpace=wrap;" vertex="1" parent="1">
          <mxGeometry x="375" y="1320" width="100" height="60" as="geometry" />
        </mxCell>
      </root>
    </mxGraphModel>
  </diagram>
  <diagram id="L136xghgO-4X9j6D23Pa" name="menu_admin">
    <mxGraphModel dx="1290" dy="621" grid="1" gridSize="10" guides="1" tooltips="1" connect="1" arrows="1" fold="1" page="1" pageScale="1" pageWidth="850" pageHeight="1100" math="0" shadow="0">
      <root>
        <mxCell id="0" />
        <mxCell id="1" parent="0" />
        <mxCell id="Zo4arlPrFuwCJ6dm4V7D-4" value="" style="edgeStyle=orthogonalEdgeStyle;rounded=0;orthogonalLoop=1;jettySize=auto;html=1;" parent="1" source="Zo4arlPrFuwCJ6dm4V7D-1" target="Zo4arlPrFuwCJ6dm4V7D-3" edge="1">
          <mxGeometry relative="1" as="geometry" />
        </mxCell>
        <mxCell id="Zo4arlPrFuwCJ6dm4V7D-1" value="Menu_admin" style="strokeWidth=2;html=1;shape=mxgraph.flowchart.start_1;whiteSpace=wrap;" parent="1" vertex="1">
          <mxGeometry x="375" y="40" width="100" height="60" as="geometry" />
        </mxCell>
        <mxCell id="Zo4arlPrFuwCJ6dm4V7D-8" value="" style="edgeStyle=orthogonalEdgeStyle;rounded=0;orthogonalLoop=1;jettySize=auto;html=1;" parent="1" source="Zo4arlPrFuwCJ6dm4V7D-3" target="Zo4arlPrFuwCJ6dm4V7D-7" edge="1">
          <mxGeometry relative="1" as="geometry" />
        </mxCell>
        <mxCell id="Zo4arlPrFuwCJ6dm4V7D-3" value="input opsi admin" style="shape=parallelogram;html=1;strokeWidth=2;perimeter=parallelogramPerimeter;whiteSpace=wrap;rounded=1;arcSize=12;size=0.23;" parent="1" vertex="1">
          <mxGeometry x="363" y="140" width="125" height="60" as="geometry" />
        </mxCell>
        <mxCell id="Zo4arlPrFuwCJ6dm4V7D-5" value="" style="edgeStyle=none;orthogonalLoop=1;jettySize=auto;html=1;rounded=0;" parent="1" edge="1">
          <mxGeometry width="100" relative="1" as="geometry">
            <mxPoint x="363" y="150" as="sourcePoint" />
            <mxPoint x="413" y="150" as="targetPoint" />
            <Array as="points" />
          </mxGeometry>
        </mxCell>
        <mxCell id="Zo4arlPrFuwCJ6dm4V7D-10" value="" style="edgeStyle=orthogonalEdgeStyle;rounded=0;orthogonalLoop=1;jettySize=auto;html=1;entryX=0.5;entryY=0;entryDx=0;entryDy=0;" parent="1" source="Zo4arlPrFuwCJ6dm4V7D-7" target="Zo4arlPrFuwCJ6dm4V7D-11" edge="1">
          <mxGeometry relative="1" as="geometry">
            <mxPoint x="426" y="410" as="targetPoint" />
          </mxGeometry>
        </mxCell>
        <mxCell id="Zo4arlPrFuwCJ6dm4V7D-27" value="True" style="edgeLabel;html=1;align=center;verticalAlign=middle;resizable=0;points=[];" parent="Zo4arlPrFuwCJ6dm4V7D-10" vertex="1" connectable="0">
          <mxGeometry x="-0.1551" y="1" relative="1" as="geometry">
            <mxPoint as="offset" />
          </mxGeometry>
        </mxCell>
        <mxCell id="Zo4arlPrFuwCJ6dm4V7D-14" value="" style="edgeStyle=orthogonalEdgeStyle;rounded=0;orthogonalLoop=1;jettySize=auto;html=1;" parent="1" source="Zo4arlPrFuwCJ6dm4V7D-7" target="Zo4arlPrFuwCJ6dm4V7D-13" edge="1">
          <mxGeometry relative="1" as="geometry" />
        </mxCell>
        <mxCell id="Zo4arlPrFuwCJ6dm4V7D-26" value="False" style="edgeLabel;html=1;align=center;verticalAlign=middle;resizable=0;points=[];" parent="Zo4arlPrFuwCJ6dm4V7D-14" vertex="1" connectable="0">
          <mxGeometry x="0.0037" y="2" relative="1" as="geometry">
            <mxPoint x="1" as="offset" />
          </mxGeometry>
        </mxCell>
        <mxCell id="Zo4arlPrFuwCJ6dm4V7D-7" value="Pilihan = 1?" style="strokeWidth=2;html=1;shape=mxgraph.flowchart.decision;whiteSpace=wrap;" parent="1" vertex="1">
          <mxGeometry x="375" y="240" width="100" height="100" as="geometry" />
        </mxCell>
        <mxCell id="Zo4arlPrFuwCJ6dm4V7D-11" value="" style="verticalLabelPosition=bottom;verticalAlign=top;html=1;shape=process;whiteSpace=wrap;rounded=1;size=0.14;arcSize=6;" parent="1" vertex="1">
          <mxGeometry x="375" y="410" width="100" height="60" as="geometry" />
        </mxCell>
        <mxCell id="Zo4arlPrFuwCJ6dm4V7D-12" value="Tampil jadwal" style="text;html=1;align=center;verticalAlign=middle;resizable=0;points=[];autosize=1;strokeColor=none;fillColor=none;" parent="1" vertex="1">
          <mxGeometry x="375" y="425" width="100" height="30" as="geometry" />
        </mxCell>
        <mxCell id="Zo4arlPrFuwCJ6dm4V7D-16" value="" style="edgeStyle=orthogonalEdgeStyle;rounded=0;orthogonalLoop=1;jettySize=auto;html=1;" parent="1" source="Zo4arlPrFuwCJ6dm4V7D-13" target="Zo4arlPrFuwCJ6dm4V7D-15" edge="1">
          <mxGeometry relative="1" as="geometry" />
        </mxCell>
        <mxCell id="Zo4arlPrFuwCJ6dm4V7D-24" value="True" style="edgeLabel;html=1;align=center;verticalAlign=middle;resizable=0;points=[];" parent="Zo4arlPrFuwCJ6dm4V7D-16" vertex="1" connectable="0">
          <mxGeometry x="-0.1551" y="-3" relative="1" as="geometry">
            <mxPoint as="offset" />
          </mxGeometry>
        </mxCell>
        <mxCell id="Zo4arlPrFuwCJ6dm4V7D-19" value="" style="edgeStyle=orthogonalEdgeStyle;rounded=0;orthogonalLoop=1;jettySize=auto;html=1;" parent="1" source="Zo4arlPrFuwCJ6dm4V7D-13" target="Zo4arlPrFuwCJ6dm4V7D-18" edge="1">
          <mxGeometry relative="1" as="geometry" />
        </mxCell>
        <mxCell id="Zo4arlPrFuwCJ6dm4V7D-25" value="False" style="edgeLabel;html=1;align=center;verticalAlign=middle;resizable=0;points=[];" parent="Zo4arlPrFuwCJ6dm4V7D-19" vertex="1" connectable="0">
          <mxGeometry x="0.0592" relative="1" as="geometry">
            <mxPoint as="offset" />
          </mxGeometry>
        </mxCell>
        <mxCell id="Zo4arlPrFuwCJ6dm4V7D-13" value="Pilihan = 2?" style="strokeWidth=2;html=1;shape=mxgraph.flowchart.decision;whiteSpace=wrap;" parent="1" vertex="1">
          <mxGeometry x="590" y="240" width="100" height="100" as="geometry" />
        </mxCell>
        <mxCell id="Zo4arlPrFuwCJ6dm4V7D-21" value="" style="edgeStyle=orthogonalEdgeStyle;rounded=0;orthogonalLoop=1;jettySize=auto;html=1;" parent="1" source="Zo4arlPrFuwCJ6dm4V7D-15" target="Zo4arlPrFuwCJ6dm4V7D-20" edge="1">
          <mxGeometry relative="1" as="geometry" />
        </mxCell>
        <mxCell id="Zo4arlPrFuwCJ6dm4V7D-15" value="Input tujuan,jumlah dan harga tiket" style="shape=parallelogram;html=1;strokeWidth=2;perimeter=parallelogramPerimeter;whiteSpace=wrap;rounded=1;arcSize=12;size=0.23;" parent="1" vertex="1">
          <mxGeometry x="580" y="410" width="120" height="60" as="geometry" />
        </mxCell>
        <mxCell id="Zo4arlPrFuwCJ6dm4V7D-17" value="" style="edgeStyle=none;orthogonalLoop=1;jettySize=auto;html=1;rounded=0;" parent="1" edge="1">
          <mxGeometry width="100" relative="1" as="geometry">
            <mxPoint x="580" y="420" as="sourcePoint" />
            <mxPoint x="630" y="420" as="targetPoint" />
            <Array as="points" />
          </mxGeometry>
        </mxCell>
        <mxCell id="Zo4arlPrFuwCJ6dm4V7D-29" value="" style="edgeStyle=orthogonalEdgeStyle;rounded=0;orthogonalLoop=1;jettySize=auto;html=1;" parent="1" source="Zo4arlPrFuwCJ6dm4V7D-18" target="Zo4arlPrFuwCJ6dm4V7D-28" edge="1">
          <mxGeometry relative="1" as="geometry" />
        </mxCell>
        <mxCell id="Zo4arlPrFuwCJ6dm4V7D-32" value="True" style="edgeLabel;html=1;align=center;verticalAlign=middle;resizable=0;points=[];" parent="Zo4arlPrFuwCJ6dm4V7D-29" vertex="1" connectable="0">
          <mxGeometry x="-0.1543" y="2" relative="1" as="geometry">
            <mxPoint as="offset" />
          </mxGeometry>
        </mxCell>
        <mxCell id="snR6R6txevVjv4ZUGNY8-2" value="" style="edgeStyle=orthogonalEdgeStyle;rounded=0;orthogonalLoop=1;jettySize=auto;html=1;" parent="1" source="Zo4arlPrFuwCJ6dm4V7D-18" target="snR6R6txevVjv4ZUGNY8-1" edge="1">
          <mxGeometry relative="1" as="geometry" />
        </mxCell>
        <mxCell id="snR6R6txevVjv4ZUGNY8-5" value="False" style="edgeLabel;html=1;align=center;verticalAlign=middle;resizable=0;points=[];" parent="snR6R6txevVjv4ZUGNY8-2" vertex="1" connectable="0">
          <mxGeometry x="-0.0933" y="1" relative="1" as="geometry">
            <mxPoint as="offset" />
          </mxGeometry>
        </mxCell>
        <mxCell id="Zo4arlPrFuwCJ6dm4V7D-18" value="Pilihan = 3?" style="strokeWidth=2;html=1;shape=mxgraph.flowchart.decision;whiteSpace=wrap;" parent="1" vertex="1">
          <mxGeometry x="830" y="240" width="100" height="100" as="geometry" />
        </mxCell>
        <mxCell id="_FuFIbztqqJ4R0IC_BZA-8" style="edgeStyle=orthogonalEdgeStyle;rounded=0;orthogonalLoop=1;jettySize=auto;html=1;entryX=0;entryY=0.5;entryDx=0;entryDy=0;exitX=0.5;exitY=1;exitDx=0;exitDy=0;" parent="1" source="Zo4arlPrFuwCJ6dm4V7D-20" target="Zo4arlPrFuwCJ6dm4V7D-3" edge="1">
          <mxGeometry relative="1" as="geometry">
            <Array as="points">
              <mxPoint x="640" y="660" />
              <mxPoint x="320" y="660" />
              <mxPoint x="320" y="170" />
            </Array>
          </mxGeometry>
        </mxCell>
        <mxCell id="Zo4arlPrFuwCJ6dm4V7D-20" value="tambahkan tujuan, jumlah dan harga tiket ke variabel" style="rounded=1;whiteSpace=wrap;html=1;absoluteArcSize=1;arcSize=14;strokeWidth=2;" parent="1" vertex="1">
          <mxGeometry x="590" y="530" width="100" height="100" as="geometry" />
        </mxCell>
        <mxCell id="Zo4arlPrFuwCJ6dm4V7D-34" value="" style="edgeStyle=orthogonalEdgeStyle;rounded=0;orthogonalLoop=1;jettySize=auto;html=1;" parent="1" source="Zo4arlPrFuwCJ6dm4V7D-35" target="Zo4arlPrFuwCJ6dm4V7D-33" edge="1">
          <mxGeometry relative="1" as="geometry" />
        </mxCell>
        <mxCell id="Zo4arlPrFuwCJ6dm4V7D-28" value="input nomor tiket&amp;nbsp; yang dihapus" style="shape=parallelogram;html=1;strokeWidth=2;perimeter=parallelogramPerimeter;whiteSpace=wrap;rounded=1;arcSize=12;size=0.23;" parent="1" vertex="1">
          <mxGeometry x="800" y="410" width="160" height="60" as="geometry" />
        </mxCell>
        <mxCell id="Zo4arlPrFuwCJ6dm4V7D-31" value="" style="edgeStyle=none;orthogonalLoop=1;jettySize=auto;html=1;rounded=0;" parent="1" edge="1">
          <mxGeometry width="100" relative="1" as="geometry">
            <mxPoint x="810" y="420" as="sourcePoint" />
            <mxPoint x="860" y="420" as="targetPoint" />
            <Array as="points" />
          </mxGeometry>
        </mxCell>
        <mxCell id="Zo4arlPrFuwCJ6dm4V7D-39" value="" style="edgeStyle=orthogonalEdgeStyle;rounded=0;orthogonalLoop=1;jettySize=auto;html=1;" parent="1" source="Zo4arlPrFuwCJ6dm4V7D-33" target="Zo4arlPrFuwCJ6dm4V7D-38" edge="1">
          <mxGeometry relative="1" as="geometry" />
        </mxCell>
        <mxCell id="Zo4arlPrFuwCJ6dm4V7D-47" value="True" style="edgeLabel;html=1;align=center;verticalAlign=middle;resizable=0;points=[];" parent="Zo4arlPrFuwCJ6dm4V7D-39" vertex="1" connectable="0">
          <mxGeometry x="-0.0267" relative="1" as="geometry">
            <mxPoint as="offset" />
          </mxGeometry>
        </mxCell>
        <mxCell id="Zo4arlPrFuwCJ6dm4V7D-41" value="" style="edgeStyle=orthogonalEdgeStyle;rounded=0;orthogonalLoop=1;jettySize=auto;html=1;" parent="1" source="Zo4arlPrFuwCJ6dm4V7D-33" target="Zo4arlPrFuwCJ6dm4V7D-40" edge="1">
          <mxGeometry relative="1" as="geometry" />
        </mxCell>
        <mxCell id="Zo4arlPrFuwCJ6dm4V7D-48" value="False" style="edgeLabel;html=1;align=center;verticalAlign=middle;resizable=0;points=[];" parent="Zo4arlPrFuwCJ6dm4V7D-41" vertex="1" connectable="0">
          <mxGeometry x="0.1741" relative="1" as="geometry">
            <mxPoint as="offset" />
          </mxGeometry>
        </mxCell>
        <mxCell id="Zo4arlPrFuwCJ6dm4V7D-33" value="Pilihan = 1 ?" style="strokeWidth=2;html=1;shape=mxgraph.flowchart.decision;whiteSpace=wrap;" parent="1" vertex="1">
          <mxGeometry x="830" y="620" width="100" height="100" as="geometry" />
        </mxCell>
        <mxCell id="Zo4arlPrFuwCJ6dm4V7D-36" value="" style="edgeStyle=orthogonalEdgeStyle;rounded=0;orthogonalLoop=1;jettySize=auto;html=1;" parent="1" source="Zo4arlPrFuwCJ6dm4V7D-28" target="Zo4arlPrFuwCJ6dm4V7D-35" edge="1">
          <mxGeometry relative="1" as="geometry">
            <mxPoint x="880" y="470" as="sourcePoint" />
            <mxPoint x="880" y="740" as="targetPoint" />
          </mxGeometry>
        </mxCell>
        <mxCell id="Zo4arlPrFuwCJ6dm4V7D-35" value="Yakin menghapus?" style="shape=parallelogram;html=1;strokeWidth=2;perimeter=parallelogramPerimeter;whiteSpace=wrap;rounded=1;arcSize=12;size=0.23;" parent="1" vertex="1">
          <mxGeometry x="830" y="510" width="100" height="60" as="geometry" />
        </mxCell>
        <mxCell id="Zo4arlPrFuwCJ6dm4V7D-37" value="" style="edgeStyle=none;orthogonalLoop=1;jettySize=auto;html=1;rounded=0;" parent="1" edge="1">
          <mxGeometry width="100" relative="1" as="geometry">
            <mxPoint x="830" y="520" as="sourcePoint" />
            <mxPoint x="880" y="520" as="targetPoint" />
            <Array as="points" />
          </mxGeometry>
        </mxCell>
        <mxCell id="_FuFIbztqqJ4R0IC_BZA-9" style="edgeStyle=orthogonalEdgeStyle;rounded=0;orthogonalLoop=1;jettySize=auto;html=1;entryX=0;entryY=0.5;entryDx=0;entryDy=0;exitX=0.5;exitY=1;exitDx=0;exitDy=0;" parent="1" source="Zo4arlPrFuwCJ6dm4V7D-38" target="Zo4arlPrFuwCJ6dm4V7D-3" edge="1">
          <mxGeometry relative="1" as="geometry">
            <Array as="points">
              <mxPoint x="880" y="910" />
              <mxPoint x="310" y="910" />
              <mxPoint x="310" y="170" />
            </Array>
          </mxGeometry>
        </mxCell>
        <mxCell id="Zo4arlPrFuwCJ6dm4V7D-38" value="Hapus jadwal penerbangan dari database" style="rounded=1;whiteSpace=wrap;html=1;absoluteArcSize=1;arcSize=14;strokeWidth=2;" parent="1" vertex="1">
          <mxGeometry x="830" y="770" width="100" height="100" as="geometry" />
        </mxCell>
        <mxCell id="Zo4arlPrFuwCJ6dm4V7D-44" value="" style="edgeStyle=orthogonalEdgeStyle;rounded=0;orthogonalLoop=1;jettySize=auto;html=1;" parent="1" source="Zo4arlPrFuwCJ6dm4V7D-40" target="Zo4arlPrFuwCJ6dm4V7D-43" edge="1">
          <mxGeometry relative="1" as="geometry" />
        </mxCell>
        <mxCell id="Zo4arlPrFuwCJ6dm4V7D-49" value="True" style="edgeLabel;html=1;align=center;verticalAlign=middle;resizable=0;points=[];" parent="Zo4arlPrFuwCJ6dm4V7D-44" vertex="1" connectable="0">
          <mxGeometry x="-0.281" y="-1" relative="1" as="geometry">
            <mxPoint as="offset" />
          </mxGeometry>
        </mxCell>
        <mxCell id="_FuFIbztqqJ4R0IC_BZA-20" style="edgeStyle=orthogonalEdgeStyle;rounded=0;orthogonalLoop=1;jettySize=auto;html=1;entryX=1;entryY=0.5;entryDx=0;entryDy=0;" parent="1" source="Zo4arlPrFuwCJ6dm4V7D-40" target="Zo4arlPrFuwCJ6dm4V7D-35" edge="1">
          <mxGeometry relative="1" as="geometry">
            <Array as="points">
              <mxPoint x="1180" y="670" />
              <mxPoint x="1180" y="540" />
            </Array>
          </mxGeometry>
        </mxCell>
        <mxCell id="_FuFIbztqqJ4R0IC_BZA-21" value="False" style="edgeLabel;html=1;align=center;verticalAlign=middle;resizable=0;points=[];" parent="_FuFIbztqqJ4R0IC_BZA-20" vertex="1" connectable="0">
          <mxGeometry x="-0.4858" y="-1" relative="1" as="geometry">
            <mxPoint as="offset" />
          </mxGeometry>
        </mxCell>
        <mxCell id="Zo4arlPrFuwCJ6dm4V7D-40" value="Pilihan = 2 ?" style="strokeWidth=2;html=1;shape=mxgraph.flowchart.decision;whiteSpace=wrap;" parent="1" vertex="1">
          <mxGeometry x="1030" y="620" width="100" height="100" as="geometry" />
        </mxCell>
        <mxCell id="_FuFIbztqqJ4R0IC_BZA-10" style="edgeStyle=orthogonalEdgeStyle;rounded=0;orthogonalLoop=1;jettySize=auto;html=1;entryX=0;entryY=0.5;entryDx=0;entryDy=0;" parent="1" source="Zo4arlPrFuwCJ6dm4V7D-43" target="Zo4arlPrFuwCJ6dm4V7D-3" edge="1">
          <mxGeometry relative="1" as="geometry">
            <Array as="points">
              <mxPoint x="1070" y="940" />
              <mxPoint x="300" y="940" />
              <mxPoint x="300" y="170" />
            </Array>
          </mxGeometry>
        </mxCell>
        <mxCell id="Zo4arlPrFuwCJ6dm4V7D-43" value="Batal menghapus" style="shape=parallelogram;html=1;strokeWidth=2;perimeter=parallelogramPerimeter;whiteSpace=wrap;rounded=1;arcSize=12;size=0.23;" parent="1" vertex="1">
          <mxGeometry x="1020" y="790" width="100" height="60" as="geometry" />
        </mxCell>
        <mxCell id="Zo4arlPrFuwCJ6dm4V7D-45" value="" style="edgeStyle=none;orthogonalLoop=1;jettySize=auto;html=1;rounded=0;" parent="1" edge="1">
          <mxGeometry width="100" relative="1" as="geometry">
            <mxPoint x="1080" y="840" as="sourcePoint" />
            <mxPoint x="1130" y="840" as="targetPoint" />
            <Array as="points" />
          </mxGeometry>
        </mxCell>
        <mxCell id="snR6R6txevVjv4ZUGNY8-4" value="" style="edgeStyle=orthogonalEdgeStyle;rounded=0;orthogonalLoop=1;jettySize=auto;html=1;" parent="1" source="snR6R6txevVjv4ZUGNY8-1" target="snR6R6txevVjv4ZUGNY8-3" edge="1">
          <mxGeometry relative="1" as="geometry" />
        </mxCell>
        <mxCell id="_FuFIbztqqJ4R0IC_BZA-18" value="False" style="edgeLabel;html=1;align=center;verticalAlign=middle;resizable=0;points=[];" parent="snR6R6txevVjv4ZUGNY8-4" vertex="1" connectable="0">
          <mxGeometry x="-0.025" y="-4" relative="1" as="geometry">
            <mxPoint x="1" as="offset" />
          </mxGeometry>
        </mxCell>
        <mxCell id="snR6R6txevVjv4ZUGNY8-7" value="" style="edgeStyle=orthogonalEdgeStyle;rounded=0;orthogonalLoop=1;jettySize=auto;html=1;entryX=0.5;entryY=0;entryDx=0;entryDy=0;" parent="1" source="snR6R6txevVjv4ZUGNY8-1" target="snR6R6txevVjv4ZUGNY8-8" edge="1">
          <mxGeometry relative="1" as="geometry">
            <mxPoint x="1340" y="410" as="targetPoint" />
          </mxGeometry>
        </mxCell>
        <mxCell id="_FuFIbztqqJ4R0IC_BZA-19" value="True" style="edgeLabel;html=1;align=center;verticalAlign=middle;resizable=0;points=[];" parent="snR6R6txevVjv4ZUGNY8-7" vertex="1" connectable="0">
          <mxGeometry x="0.0786" y="-2" relative="1" as="geometry">
            <mxPoint as="offset" />
          </mxGeometry>
        </mxCell>
        <mxCell id="snR6R6txevVjv4ZUGNY8-1" value="Pilihan = 4&lt;span style=&quot;background-color: initial;&quot;&gt;?&lt;/span&gt;" style="strokeWidth=2;html=1;shape=mxgraph.flowchart.decision;whiteSpace=wrap;" parent="1" vertex="1">
          <mxGeometry x="1260" y="240" width="100" height="100" as="geometry" />
        </mxCell>
        <mxCell id="_FuFIbztqqJ4R0IC_BZA-2" value="" style="edgeStyle=orthogonalEdgeStyle;rounded=0;orthogonalLoop=1;jettySize=auto;html=1;" parent="1" source="snR6R6txevVjv4ZUGNY8-3" target="_FuFIbztqqJ4R0IC_BZA-1" edge="1">
          <mxGeometry relative="1" as="geometry" />
        </mxCell>
        <mxCell id="_FuFIbztqqJ4R0IC_BZA-14" value="True" style="edgeLabel;html=1;align=center;verticalAlign=middle;resizable=0;points=[];" parent="_FuFIbztqqJ4R0IC_BZA-2" vertex="1" connectable="0">
          <mxGeometry x="-0.14" y="3" relative="1" as="geometry">
            <mxPoint y="-1" as="offset" />
          </mxGeometry>
        </mxCell>
        <mxCell id="_FuFIbztqqJ4R0IC_BZA-4" value="" style="edgeStyle=orthogonalEdgeStyle;rounded=0;orthogonalLoop=1;jettySize=auto;html=1;" parent="1" source="snR6R6txevVjv4ZUGNY8-3" target="_FuFIbztqqJ4R0IC_BZA-3" edge="1">
          <mxGeometry relative="1" as="geometry" />
        </mxCell>
        <mxCell id="_FuFIbztqqJ4R0IC_BZA-17" value="False" style="edgeLabel;html=1;align=center;verticalAlign=middle;resizable=0;points=[];" parent="_FuFIbztqqJ4R0IC_BZA-4" vertex="1" connectable="0">
          <mxGeometry x="0.0667" relative="1" as="geometry">
            <mxPoint x="1" as="offset" />
          </mxGeometry>
        </mxCell>
        <mxCell id="snR6R6txevVjv4ZUGNY8-3" value="Pilihan = 5?" style="strokeWidth=2;html=1;shape=mxgraph.flowchart.decision;whiteSpace=wrap;" parent="1" vertex="1">
          <mxGeometry x="1480" y="240" width="100" height="100" as="geometry" />
        </mxCell>
        <mxCell id="snR6R6txevVjv4ZUGNY8-8" value="" style="verticalLabelPosition=bottom;verticalAlign=top;html=1;shape=process;whiteSpace=wrap;rounded=1;size=0.14;arcSize=6;" parent="1" vertex="1">
          <mxGeometry x="1245" y="410" width="130" height="60" as="geometry" />
        </mxCell>
        <mxCell id="oqNK0DGlLIJAiFdWlyfy-6" value="" style="edgeStyle=orthogonalEdgeStyle;rounded=0;orthogonalLoop=1;jettySize=auto;html=1;" parent="1" source="snR6R6txevVjv4ZUGNY8-9" target="oqNK0DGlLIJAiFdWlyfy-2" edge="1">
          <mxGeometry relative="1" as="geometry" />
        </mxCell>
        <mxCell id="snR6R6txevVjv4ZUGNY8-9" value="Tampilkan jadwal" style="text;html=1;align=center;verticalAlign=middle;resizable=0;points=[];autosize=1;strokeColor=none;fillColor=none;" parent="1" vertex="1">
          <mxGeometry x="1255" y="425" width="110" height="30" as="geometry" />
        </mxCell>
        <mxCell id="_FuFIbztqqJ4R0IC_BZA-12" style="edgeStyle=orthogonalEdgeStyle;rounded=0;orthogonalLoop=1;jettySize=auto;html=1;entryX=0;entryY=0.5;entryDx=0;entryDy=0;" parent="1" source="_FuFIbztqqJ4R0IC_BZA-1" target="Zo4arlPrFuwCJ6dm4V7D-3" edge="1">
          <mxGeometry relative="1" as="geometry">
            <Array as="points">
              <mxPoint x="1530" y="980" />
              <mxPoint x="270" y="980" />
              <mxPoint x="270" y="170" />
            </Array>
          </mxGeometry>
        </mxCell>
        <mxCell id="_FuFIbztqqJ4R0IC_BZA-1" value="Riwayat pembelian" style="rounded=1;whiteSpace=wrap;html=1;absoluteArcSize=1;arcSize=14;strokeWidth=2;" parent="1" vertex="1">
          <mxGeometry x="1480" y="440" width="100" height="100" as="geometry" />
        </mxCell>
        <mxCell id="_FuFIbztqqJ4R0IC_BZA-6" value="" style="edgeStyle=orthogonalEdgeStyle;rounded=0;orthogonalLoop=1;jettySize=auto;html=1;exitX=0.5;exitY=1;exitDx=0;exitDy=0;exitPerimeter=0;entryX=0.5;entryY=0;entryDx=0;entryDy=0;entryPerimeter=0;" parent="1" source="_FuFIbztqqJ4R0IC_BZA-3" target="_FuFIbztqqJ4R0IC_BZA-5" edge="1">
          <mxGeometry relative="1" as="geometry">
            <mxPoint x="1690" y="350" as="sourcePoint" />
            <mxPoint x="250" y="1040" as="targetPoint" />
            <Array as="points">
              <mxPoint x="1720" y="1040" />
              <mxPoint x="426" y="1040" />
            </Array>
          </mxGeometry>
        </mxCell>
        <mxCell id="_FuFIbztqqJ4R0IC_BZA-23" style="edgeStyle=orthogonalEdgeStyle;rounded=0;orthogonalLoop=1;jettySize=auto;html=1;entryX=1;entryY=0.5;entryDx=0;entryDy=0;" parent="1" source="_FuFIbztqqJ4R0IC_BZA-3" target="Zo4arlPrFuwCJ6dm4V7D-3" edge="1">
          <mxGeometry relative="1" as="geometry">
            <Array as="points">
              <mxPoint x="1830" y="290" />
              <mxPoint x="1830" y="170" />
            </Array>
          </mxGeometry>
        </mxCell>
        <mxCell id="_FuFIbztqqJ4R0IC_BZA-24" value="False" style="edgeLabel;html=1;align=center;verticalAlign=middle;resizable=0;points=[];" parent="_FuFIbztqqJ4R0IC_BZA-23" vertex="1" connectable="0">
          <mxGeometry x="-0.9631" y="4" relative="1" as="geometry">
            <mxPoint x="1" as="offset" />
          </mxGeometry>
        </mxCell>
        <mxCell id="_FuFIbztqqJ4R0IC_BZA-3" value="Pilihan = 6?" style="strokeWidth=2;html=1;shape=mxgraph.flowchart.decision;whiteSpace=wrap;" parent="1" vertex="1">
          <mxGeometry x="1670" y="240" width="100" height="100" as="geometry" />
        </mxCell>
        <mxCell id="_FuFIbztqqJ4R0IC_BZA-5" value="END" style="strokeWidth=2;html=1;shape=mxgraph.flowchart.start_1;whiteSpace=wrap;" parent="1" vertex="1">
          <mxGeometry x="375.5" y="1130" width="100" height="60" as="geometry" />
        </mxCell>
        <mxCell id="_FuFIbztqqJ4R0IC_BZA-7" style="edgeStyle=orthogonalEdgeStyle;rounded=0;orthogonalLoop=1;jettySize=auto;html=1;entryX=0;entryY=0.5;entryDx=0;entryDy=0;exitX=0.5;exitY=1;exitDx=0;exitDy=0;" parent="1" source="Zo4arlPrFuwCJ6dm4V7D-11" target="Zo4arlPrFuwCJ6dm4V7D-3" edge="1">
          <mxGeometry relative="1" as="geometry">
            <Array as="points">
              <mxPoint x="425" y="520" />
              <mxPoint x="330" y="520" />
              <mxPoint x="330" y="170" />
            </Array>
          </mxGeometry>
        </mxCell>
        <mxCell id="oqNK0DGlLIJAiFdWlyfy-8" value="" style="edgeStyle=orthogonalEdgeStyle;rounded=0;orthogonalLoop=1;jettySize=auto;html=1;" parent="1" source="oqNK0DGlLIJAiFdWlyfy-2" target="oqNK0DGlLIJAiFdWlyfy-7" edge="1">
          <mxGeometry relative="1" as="geometry" />
        </mxCell>
        <mxCell id="oqNK0DGlLIJAiFdWlyfy-2" value="Input tujuan, jumlah, harga tiket yang baru" style="shape=parallelogram;html=1;strokeWidth=2;perimeter=parallelogramPerimeter;whiteSpace=wrap;rounded=1;arcSize=12;size=0.23;" parent="1" vertex="1">
          <mxGeometry x="1217.5" y="550" width="185" height="60" as="geometry" />
        </mxCell>
        <mxCell id="oqNK0DGlLIJAiFdWlyfy-9" style="edgeStyle=orthogonalEdgeStyle;rounded=0;orthogonalLoop=1;jettySize=auto;html=1;entryX=0;entryY=0.5;entryDx=0;entryDy=0;" parent="1" source="oqNK0DGlLIJAiFdWlyfy-7" target="Zo4arlPrFuwCJ6dm4V7D-3" edge="1">
          <mxGeometry relative="1" as="geometry">
            <Array as="points">
              <mxPoint x="1310" y="950" />
              <mxPoint x="290" y="950" />
              <mxPoint x="290" y="170" />
            </Array>
          </mxGeometry>
        </mxCell>
        <mxCell id="oqNK0DGlLIJAiFdWlyfy-7" value="update data tiket" style="rounded=1;whiteSpace=wrap;html=1;absoluteArcSize=1;arcSize=14;strokeWidth=2;" parent="1" vertex="1">
          <mxGeometry x="1260" y="680" width="100" height="100" as="geometry" />
        </mxCell>
        <mxCell id="oqNK0DGlLIJAiFdWlyfy-10" value="" style="edgeStyle=none;orthogonalLoop=1;jettySize=auto;html=1;rounded=0;" parent="1" edge="1">
          <mxGeometry width="100" relative="1" as="geometry">
            <mxPoint x="1230" y="560" as="sourcePoint" />
            <mxPoint x="1280" y="560" as="targetPoint" />
            <Array as="points" />
          </mxGeometry>
        </mxCell>
      </root>
    </mxGraphModel>
  </diagram>
</mxfile>
